<svg xmlns="http://www.w3.org/2000/svg" width="12.041" height="11.438" viewBox="0 0 12.041 11.438">
  <path id="bx-like" d="M13.836,6.612H10.458l.676-2.027A1.2,1.2,0,0,0,9.991,3H9.02a.6.6,0,0,0-.463.217l-2.83,3.4H4.2A1.205,1.205,0,0,0,3,7.816v5.418a1.205,1.205,0,0,0,1.2,1.2h8.011a1.21,1.21,0,0,0,1.127-.781L15,9.231a.6.6,0,0,0,.038-.211v-1.2A1.205,1.205,0,0,0,13.836,6.612ZM4.2,7.816h1.2v5.418H4.2Zm9.632,1.095-1.621,4.323h-5.6v-5.8L9.3,4.2h.69l-.94,2.819a.6.6,0,0,0,.571.793h4.214Z" transform="translate(-3 -3)"/>
</svg>
