<svg xmlns="http://www.w3.org/2000/svg" xmlns:xlink="http://www.w3.org/1999/xlink" width="67.466" height="44.577" viewBox="0 0 67.466 44.577">
  <defs>
    <linearGradient id="linear-gradient" y1="0.5" x2="1" y2="0.5" gradientUnits="objectBoundingBox">
      <stop offset="0" stop-color="#dae3fe"/>
      <stop offset="1" stop-color="#e9effd"/>
    </linearGradient>
    <linearGradient id="linear-gradient-2" x1="0.502" y1="1.031" x2="0.418" y2="-0.182" gradientUnits="objectBoundingBox">
      <stop offset="0" stop-color="#09005d"/>
      <stop offset="1" stop-color="#1a0f91"/>
    </linearGradient>
    <linearGradient id="linear-gradient-3" x1="0.512" y1="-0.176" x2="0.488" y2="1.735" xlink:href="#linear-gradient-2"/>
    <linearGradient id="linear-gradient-4" x1="0.149" y1="0.919" x2="0.807" y2="0.13" gradientUnits="objectBoundingBox">
      <stop offset="0" stop-color="#020039"/>
      <stop offset="1" stop-color="#090056"/>
    </linearGradient>
    <linearGradient id="linear-gradient-5" y1="0.5" x2="1" y2="0.5" gradientUnits="objectBoundingBox">
      <stop offset="0" stop-color="#fe7062"/>
      <stop offset="1" stop-color="#ff928e"/>
    </linearGradient>
    <linearGradient id="linear-gradient-6" x1="0" y1="0.5" x2="1" y2="0.5" xlink:href="#linear-gradient"/>
    <linearGradient id="linear-gradient-7" x1="0" y1="0.5" x2="1" y2="0.5" xlink:href="#linear-gradient"/>
    <linearGradient id="linear-gradient-8" x1="0" y1="0.5" x2="1" y2="0.5" xlink:href="#linear-gradient"/>
    <linearGradient id="linear-gradient-11" x1="-0.076" y1="1.031" x2="0.732" y2="0.196" xlink:href="#linear-gradient-2"/>
    <linearGradient id="linear-gradient-12" x1="0.361" y1="0.718" x2="1.325" y2="0.387" gradientUnits="objectBoundingBox">
      <stop offset="0" stop-color="#4042e2"/>
      <stop offset="1" stop-color="#4f52ff"/>
    </linearGradient>
    <linearGradient id="linear-gradient-13" x1="3.289" y1="0.263" x2="-0.028" y2="0.545" xlink:href="#linear-gradient-2"/>
    <linearGradient id="linear-gradient-14" x1="-0.333" y1="0.512" x2="1.523" y2="0.486" xlink:href="#linear-gradient-12"/>
    <clipPath id="clip-path">
      <path id="Path_2997" data-name="Path 2997" d="M-2828.379,728.551c-.234-.239-.744-1.157-1.182-3.534a48.48,48.48,0,0,1-.655-8.387,48.484,48.484,0,0,1,.655-8.387c.438-2.377.948-3.3,1.182-3.534.234.239.744,1.157,1.182,3.534.423,2.3,3.758,5.275,3.758,8.387s-3.336,6.09-3.758,8.387C-2827.634,727.393-2828.144,728.312-2828.379,728.551Z" transform="translate(2830.216 -704.709)" fill="none"/>
    </clipPath>
    <linearGradient id="linear-gradient-15" x1="0" y1="0.5" x2="1" y2="0.5" xlink:href="#linear-gradient-4"/>
    <linearGradient id="linear-gradient-16" x1="0.525" y1="0.934" x2="0.436" y2="-0.664" xlink:href="#linear-gradient-2"/>
    <linearGradient id="linear-gradient-17" x1="0" y1="0.5" x2="1" y2="0.5" xlink:href="#linear-gradient"/>
    <linearGradient id="linear-gradient-18" x1="0" y1="0.5" x2="1" y2="0.5" xlink:href="#linear-gradient"/>
    <linearGradient id="linear-gradient-20" x1="0" y1="0.5" x2="1" y2="0.5" xlink:href="#linear-gradient"/>
    <linearGradient id="linear-gradient-24" x1="0.531" y1="0.127" x2="0.328" y2="1.542" xlink:href="#linear-gradient-2"/>
    <linearGradient id="linear-gradient-25" x1="0.457" y1="1.875" x2="-0.174" y2="23.663" xlink:href="#linear-gradient-12"/>
    <linearGradient id="linear-gradient-26" x1="0.416" y1="2.734" x2="-0.105" y2="17.453" xlink:href="#linear-gradient-12"/>
    <linearGradient id="linear-gradient-27" x1="0.379" y1="3.811" x2="-0.133" y2="18.52" xlink:href="#linear-gradient-12"/>
    <linearGradient id="linear-gradient-28" x1="0.332" y1="5.005" x2="-0.21" y2="19.854" xlink:href="#linear-gradient-12"/>
    <linearGradient id="linear-gradient-29" x1="0.441" y1="0.722" x2="0.563" y2="-0.049" xlink:href="#linear-gradient-5"/>
    <linearGradient id="linear-gradient-30" x1="0.464" y1="0.304" x2="0.798" y2="2.219" gradientUnits="objectBoundingBox">
      <stop offset="0" stop-color="#e1473d"/>
      <stop offset="1" stop-color="#e9605a"/>
    </linearGradient>
    <linearGradient id="linear-gradient-31" x1="0.465" y1="0.307" x2="0.799" y2="2.221" xlink:href="#linear-gradient-30"/>
    <linearGradient id="linear-gradient-32" x1="1.706" y1="-5.586" x2="0.718" y2="-0.544" gradientUnits="objectBoundingBox">
      <stop offset="0" stop-color="#ff928e"/>
      <stop offset="1" stop-color="#feb3b1"/>
    </linearGradient>
    <linearGradient id="linear-gradient-33" x1="-2.406" y1="-12.427" x2="-0.852" y2="-5.514" xlink:href="#linear-gradient-32"/>
    <linearGradient id="linear-gradient-34" x1="-1.73" y1="-1.539" x2="-0.278" y2="-0.106" xlink:href="#linear-gradient-32"/>
    <linearGradient id="linear-gradient-35" x1="0" y1="0.5" x2="1" y2="0.5" xlink:href="#linear-gradient-2"/>
    <linearGradient id="linear-gradient-36" x1="0" y1="0.5" x2="1" y2="0.5" xlink:href="#linear-gradient-2"/>
    <linearGradient id="linear-gradient-38" x1="-0.171" y1="0.637" x2="-1.409" y2="0.863" gradientUnits="objectBoundingBox">
      <stop offset="0" stop-color="#ff928e"/>
      <stop offset="0.748" stop-color="#feaba8"/>
      <stop offset="1" stop-color="#feb3b1"/>
    </linearGradient>
    <linearGradient id="linear-gradient-39" x1="3863.604" y1="-21.203" x2="3863.804" y2="-19.417" xlink:href="#linear-gradient-12"/>
    <linearGradient id="linear-gradient-40" x1="0.465" y1="0.585" x2="0.746" y2="0.324" xlink:href="#linear-gradient-38"/>
    <linearGradient id="linear-gradient-41" x1="653.347" y1="0.284" x2="653.865" y2="2.674" xlink:href="#linear-gradient-12"/>
    <linearGradient id="linear-gradient-42" x1="3007.253" y1="-57.159" x2="3007.409" y2="-52.446" xlink:href="#linear-gradient-12"/>
    <linearGradient id="linear-gradient-43" x1="0.702" y1="0.404" x2="0.177" y2="0.967" xlink:href="#linear-gradient-5"/>
    <linearGradient id="linear-gradient-44" x1="0.497" y1="0.512" x2="-0.021" y2="2.904" gradientUnits="objectBoundingBox">
      <stop offset="0" stop-color="#ff928e"/>
      <stop offset="0.535" stop-color="#feaba8"/>
      <stop offset="1" stop-color="#feb3b1"/>
    </linearGradient>
    <linearGradient id="linear-gradient-45" x1="0.836" y1="0.116" x2="0.401" y2="0.724" xlink:href="#linear-gradient-38"/>
    <linearGradient id="linear-gradient-46" x1="3478.343" y1="-0.703" x2="3476.393" y2="0.923" xlink:href="#linear-gradient-12"/>
    <linearGradient id="linear-gradient-47" x1="2.269" y1="-1.651" x2="0.688" y2="0.311" xlink:href="#linear-gradient-38"/>
    <linearGradient id="linear-gradient-48" x1="0.37" y1="-2.984" x2="0.463" y2="-0.383" gradientUnits="objectBoundingBox">
      <stop offset="0" stop-color="#ff928e"/>
      <stop offset="0.319" stop-color="#ff9d99"/>
      <stop offset="0.748" stop-color="#feaba8"/>
      <stop offset="1" stop-color="#feb3b1"/>
    </linearGradient>
    <linearGradient id="linear-gradient-49" x1="2439.032" y1="-0.179" x2="2437.666" y2="0.949" xlink:href="#linear-gradient-12"/>
    <linearGradient id="linear-gradient-50" x1="1643.574" y1="874.835" x2="1642.834" y2="877.275" xlink:href="#linear-gradient-4"/>
    <linearGradient id="linear-gradient-51" x1="1259.895" y1="0.134" x2="1259.494" y2="0.8" xlink:href="#linear-gradient-4"/>
    <linearGradient id="linear-gradient-52" x1="413.037" y1="-1981.71" x2="413.153" y2="-1983.426" xlink:href="#linear-gradient-30"/>
    <linearGradient id="linear-gradient-53" x1="390.818" y1="-1406.344" x2="391.244" y2="-1407.324" xlink:href="#linear-gradient-5"/>
    <linearGradient id="linear-gradient-54" x1="319.643" y1="-1871.951" x2="319.133" y2="-1873.543" xlink:href="#linear-gradient-5"/>
    <linearGradient id="linear-gradient-55" x1="1.508" y1="0.135" x2="-0.203" y2="0.76" xlink:href="#linear-gradient-2"/>
    <linearGradient id="linear-gradient-56" x1="484.289" y1="-1429.224" x2="483.157" y2="-1427.7" xlink:href="#linear-gradient-5"/>
    <linearGradient id="linear-gradient-57" x1="5.219" y1="-0.634" x2="-1.738" y2="1.037" xlink:href="#linear-gradient-2"/>
    <linearGradient id="linear-gradient-58" x1="0" y1="0.5" x2="1" y2="0.5" xlink:href="#linear-gradient"/>
    <linearGradient id="linear-gradient-59" x1="6.229" y1="-0.876" x2="-4.303" y2="1.653" xlink:href="#linear-gradient-2"/>
    <linearGradient id="linear-gradient-60" x1="0" y1="0.5" x2="1" y2="0.5" xlink:href="#linear-gradient"/>
    <linearGradient id="linear-gradient-62" x1="0" y1="0.5" x2="1" y2="0.5" xlink:href="#linear-gradient"/>
    <linearGradient id="linear-gradient-65" x1="1321.615" y1="710.625" x2="1322.622" y2="710.625" xlink:href="#linear-gradient-12"/>
    <linearGradient id="linear-gradient-66" x1="1360.036" y1="375.557" x2="1361.042" y2="375.557" xlink:href="#linear-gradient-2"/>
    <linearGradient id="linear-gradient-67" x1="4709.957" y1="421.722" x2="4710.968" y2="421.722" xlink:href="#linear-gradient-38"/>
    <linearGradient id="linear-gradient-68" x1="3372.015" y1="1386.26" x2="3373.002" y2="1386.26" xlink:href="#linear-gradient-12"/>
    <linearGradient id="linear-gradient-69" x1="2624.498" y1="225.612" x2="2625.627" y2="225.612" xlink:href="#linear-gradient-2"/>
    <linearGradient id="linear-gradient-70" x1="4355.086" y1="407.511" x2="4356.207" y2="407.511" xlink:href="#linear-gradient-38"/>
    <linearGradient id="linear-gradient-71" x1="608.482" y1="37.665" x2="606.755" y2="38.982" xlink:href="#linear-gradient-12"/>
    <linearGradient id="linear-gradient-72" x1="664.028" y1="49.321" x2="660.132" y2="51.466" xlink:href="#linear-gradient-12"/>
    <linearGradient id="linear-gradient-73" x1="3296.448" y1="346.589" x2="3296.854" y2="345.875" gradientUnits="objectBoundingBox">
      <stop offset="0" stop-color="#53d8ff"/>
      <stop offset="1" stop-color="#3840f7"/>
    </linearGradient>
    <linearGradient id="linear-gradient-74" x1="2089.447" y1="154.077" x2="2087.536" y2="155.136" xlink:href="#linear-gradient-38"/>
    <linearGradient id="linear-gradient-75" x1="1528.294" y1="78.985" x2="1519.351" y2="82.422" xlink:href="#linear-gradient-12"/>
    <linearGradient id="linear-gradient-76" x1="1748.878" y1="101.576" x2="1738.671" y2="105.967" xlink:href="#linear-gradient-12"/>
    <linearGradient id="linear-gradient-77" x1="1465.954" y1="273.533" x2="1467.006" y2="273.533" xlink:href="#linear-gradient-38"/>
    <linearGradient id="linear-gradient-78" x1="0.385" y1="0.277" x2="0.763" y2="1.37" xlink:href="#linear-gradient-38"/>
    <linearGradient id="linear-gradient-79" x1="0.004" y1="0.618" x2="0.926" y2="0.376" xlink:href="#linear-gradient-38"/>
    <linearGradient id="linear-gradient-80" x1="1206.227" y1="519.33" x2="1207.286" y2="519.33" gradientUnits="objectBoundingBox">
      <stop offset="0" stop-color="#2b3582"/>
      <stop offset="1" stop-color="#150e42"/>
    </linearGradient>
    <linearGradient id="linear-gradient-81" x1="5468.06" y1="2394.239" x2="5471.286" y2="2391.839" xlink:href="#linear-gradient-38"/>
    <linearGradient id="linear-gradient-82" x1="4034.747" y1="433.377" x2="4035.782" y2="433.377" gradientUnits="objectBoundingBox">
      <stop offset="0" stop-color="#f9b776"/>
      <stop offset="1" stop-color="#f47960"/>
    </linearGradient>
    <linearGradient id="linear-gradient-83" x1="130.551" y1="24.132" x2="129.147" y2="25.759" xlink:href="#linear-gradient-2"/>
    <linearGradient id="linear-gradient-84" x1="944.414" y1="153.71" x2="945.75" y2="152.116" xlink:href="#linear-gradient-4"/>
    <linearGradient id="linear-gradient-85" x1="662.579" y1="85.802" x2="659.11" y2="89.765" xlink:href="#linear-gradient-5"/>
    <linearGradient id="linear-gradient-86" x1="148.914" y1="32.627" x2="148.207" y2="33.995" xlink:href="#linear-gradient-5"/>
    <linearGradient id="linear-gradient-87" x1="148.961" y1="32.632" x2="148.254" y2="34" xlink:href="#linear-gradient-5"/>
    <linearGradient id="linear-gradient-88" x1="1837.831" y1="641.2" x2="1836.152" y2="645.61" xlink:href="#linear-gradient-38"/>
  </defs>
  <g id="Group_2381" data-name="Group 2381" transform="translate(7735.893 -14360.483)">
    <path id="Path_2957" data-name="Path 2957" d="M-2887.344,728.742s-6-.753-8.848-.165-9.906-2.6-7.567-7.614,5.3-6.242,2.243-8.981-4.337-9.83-1.183-12.762,4.1.085,6.617-.995-.678-6.713,6.421-8.3,12.617,3.218,15.845,2.675,8.191-3.874,11.675-3.733,3.052,5.042,7.674,4.756,8.251-.779,11.246,3.394,2.274,9.466-.58,11.559-2.3,4.9,2.966,5.066,4.671,6,.376,10.3-7.981,4.355-12.271,4.637S-2887.344,728.742-2887.344,728.742Z" transform="translate(-4831.366 13673.962)" fill="url(#linear-gradient)"/>
    <g id="Group_1954" data-name="Group 1954" transform="translate(-7732.569 14393.012)">
      <path id="Path_2958" data-name="Path 2958" d="M-2886.548,748.216a5.944,5.944,0,0,0-2.874-3.779c-2.323-1.392-7.992-4.5-9.525-6.831-.068-.1-.234,0-.217.132a13.092,13.092,0,0,0,3.764,7.637C-2891.741,748.844-2886.548,748.216-2886.548,748.216Z" transform="translate(2899.165 -737.564)" fill="#bdd0fb"/>
      <path id="Path_2959" data-name="Path 2959" d="M-2896.955,741.287a5.183,5.183,0,0,0,.361.771c.066.125.143.245.216.366s.159.234.236.353a8.889,8.889,0,0,0,1.105,1.278l.152.148c.051.049.105.094.158.141.107.092.211.187.319.276l.334.258c.109.089.226.168.342.248s.23.161.348.239l.361.218c.238.149.491.283.738.423q.747.412,1.506.8c.506.26,1.016.514,1.526.769.255.127.511.254.764.386q.192.1.381.2l.19.1.187.107c.25.141.494.3.731.459a4.047,4.047,0,0,1,.649.572.037.037,0,0,1,0,.051.037.037,0,0,1-.049,0h0a4.464,4.464,0,0,0-.668-.515c-.24-.148-.487-.286-.741-.412-.505-.257-1.025-.49-1.541-.733l-.776-.363c-.257-.125-.514-.249-.77-.377s-.511-.257-.765-.39-.5-.269-.755-.407a10.973,10.973,0,0,1-2.778-2.036,8.168,8.168,0,0,1-1.066-1.358,7.2,7.2,0,0,1-.409-.759,4.575,4.575,0,0,1-.292-.808l0-.006Z" transform="translate(2898.328 -738.978)" fill="#dce5fe"/>
    </g>
    <g id="Group_1955" data-name="Group 1955" transform="translate(-7726.261 14378.881)">
      <path id="Path_2960" data-name="Path 2960" d="M-2888.892,714.966a.21.21,0,0,1,.4-.075c.872,1.922,3.317,6.891,6.27,9.274,4.809,3.879,8.672,10.784,6.618,14.983C-2875.6,739.147-2890.316,738.711-2888.892,714.966Z" transform="translate(2888.989 -714.768)" fill="#bdd0fb"/>
      <path id="Path_2961" data-name="Path 2961" d="M-2887.41,719.575c.014.048.034.106.052.161l.057.165.118.329.243.655q.248.654.511,1.3.523,1.3,1.093,2.571c.765,1.7,1.577,3.376,2.476,5.006.453.813.911,1.623,1.4,2.414s1,1.57,1.539,2.327,1.1,1.5,1.7,2.211a27.375,27.375,0,0,0,1.9,2.038h0a.037.037,0,0,1,0,.051.036.036,0,0,1-.05,0,24.19,24.19,0,0,1-1.97-1.994c-.616-.7-1.191-1.442-1.746-2.194a44.94,44.94,0,0,1-2.975-4.75c-.449-.819-.872-1.653-1.282-2.492s-.8-1.687-1.169-2.546-.725-1.721-1.057-2.593q-.248-.655-.483-1.315c-.077-.22-.154-.44-.228-.662l-.109-.333-.053-.167c-.016-.057-.034-.109-.049-.174a.035.035,0,0,1,.027-.043.036.036,0,0,1,.043.025Z" transform="translate(2888.416 -716.582)" fill="#dce5fe"/>
    </g>
    <g id="Group_1956" data-name="Group 1956" transform="translate(-7694.722 14368.146)">
      <path id="Path_2962" data-name="Path 2962" d="M-2822.791,697.643a.233.233,0,0,0-.4-.118c-1,1.429-3.772,5.094-6.9,6.593-5.089,2.441-9.414,7.467-7.605,11.162C-2837.692,715.28-2822.835,717.065-2822.791,697.643Z" transform="translate(2838.111 -697.45)" fill="#bdd0fb"/>
      <path id="Path_2963" data-name="Path 2963" d="M-2822.684,701.2c-.021.056-.043.095-.064.141l-.066.133-.136.262c-.091.175-.186.347-.281.519-.19.345-.389.685-.588,1.024-.4.676-.828,1.34-1.266,1.994a42.8,42.8,0,0,1-2.845,3.773c-.508.6-1.043,1.183-1.59,1.75s-1.122,1.109-1.714,1.631-1.216,1.005-1.854,1.468a20.82,20.82,0,0,1-2.008,1.249.037.037,0,0,1-.049-.015.037.037,0,0,1,.013-.048h0c.673-.4,1.326-.838,1.955-1.306s1.232-.969,1.814-1.493,1.147-1.067,1.69-1.633,1.065-1.15,1.576-1.744,1-1.208,1.477-1.831l.354-.469.348-.475c.229-.318.458-.636.682-.959q.672-.966,1.3-1.965c.208-.333.415-.666.614-1q.149-.254.294-.51l.144-.257.07-.129c.022-.042.047-.089.064-.124l0-.01a.035.035,0,0,1,.047-.017A.036.036,0,0,1-2822.684,701.2Z" transform="translate(2836.985 -698.856)" fill="#dce5fe"/>
    </g>
    <g id="Group_1957" data-name="Group 1957" transform="translate(-7700.102 14360.7)">
      <path id="Path_2964" data-name="Path 2964" d="M-2836.262,685.6a.2.2,0,0,0-.383-.023c-.594,1.9-2.307,6.825-4.795,9.393-4.05,4.181-6.868,11.082-4.464,14.771C-2845.9,709.743-2832.2,707.642-2836.262,685.6Z" transform="translate(2846.79 -685.44)" fill="#bdd0fb"/>
      <path id="Path_2965" data-name="Path 2965" d="M-2835.6,690.064c-.007.063-.017.113-.026.169l-.03.162-.062.324c-.043.216-.09.43-.137.645q-.142.644-.3,1.285c-.21.854-.443,1.7-.689,2.547s-.513,1.684-.8,2.516-.586,1.66-.912,2.478a42.124,42.124,0,0,1-2.236,4.784c-.433.767-.885,1.524-1.381,2.252a22.8,22.8,0,0,1-1.614,2.09.036.036,0,0,1-.051,0,.036.036,0,0,1,0-.05h0a25.69,25.69,0,0,0,1.545-2.126c.48-.733.918-1.493,1.335-2.263s.8-1.558,1.171-2.353.7-1.606,1.032-2.418c.653-1.628,1.219-3.289,1.74-4.965q.387-1.258.727-2.53.171-.635.329-1.275l.152-.64.073-.32.035-.161c.011-.053.022-.11.03-.156v-.008a.036.036,0,0,1,.041-.03A.036.036,0,0,1-2835.6,690.064Z" transform="translate(2845.673 -687.183)" fill="#dce5fe"/>
    </g>
    <g id="Group_1962" data-name="Group 1962" transform="translate(-7698.676 14372.114)">
      <path id="Path_2966" data-name="Path 2966" d="M-2830.285,743.93l-.621,5.572h7.208l-.939-5.572Z" transform="translate(2839.327 -719.087)" fill="url(#linear-gradient-2)"/>
      <path id="Path_2967" data-name="Path 2967" d="M-2823.521,753.8h-10.549c-.287,0-.5-.2-.446-.423l.135-.536a.436.436,0,0,1,.428-.286l10.17-.317a.449.449,0,0,1,.462.277l.244.853C-2823.014,753.589-2823.23,753.8-2823.521,753.8Z" transform="translate(2840.702 -722.244)" fill="url(#linear-gradient-3)"/>
      <path id="Path_2968" data-name="Path 2968" d="M-2844.49,720.911v12.761a1.936,1.936,0,0,0,1.886,1.935c4.661.12,16.666.412,21.1.346a1.425,1.425,0,0,0,1.4-1.384c.085-2.964.224-10.093-.29-13.4a1.466,1.466,0,0,0-1.4-1.241c-3.905-.125-16.89-.521-21.324-.422A1.407,1.407,0,0,0-2844.49,720.911Z" transform="translate(2844.49 -709.796)" fill="url(#linear-gradient-4)"/>
      <path id="Path_2969" data-name="Path 2969" d="M-2843.2,721.154v12.124a1.122,1.122,0,0,0,1.105,1.121l20.445.306a1.091,1.091,0,0,0,1.108-1.087l.041-12.015a.8.8,0,0,0-.778-.8l-21.034-.512A.866.866,0,0,0-2843.2,721.154Z" transform="translate(2844 -710.1)" fill="url(#linear-gradient-5)"/>
      <path id="Path_2970" data-name="Path 2970" d="M-2820.4,744.035h0l-22.844-.462a.072.072,0,0,1-.071-.074.072.072,0,0,1,.074-.071l22.844.462a.072.072,0,0,1,.071.074A.072.072,0,0,1-2820.4,744.035Z" transform="translate(2844.044 -718.896)" fill="url(#linear-gradient-6)"/>
      <path id="Path_2971" data-name="Path 2971" d="M-2826.039,744.884a.355.355,0,0,1-.354-.355.355.355,0,0,1,.354-.355.355.355,0,0,1,.355.355A.356.356,0,0,1-2826.039,744.884Zm0-.565a.21.21,0,0,0-.209.21.21.21,0,0,0,.209.21.21.21,0,0,0,.21-.21A.21.21,0,0,0-2826.039,744.318Z" transform="translate(2837.611 -719.179)" fill="url(#linear-gradient-7)"/>
      <path id="Path_2972" data-name="Path 2972" d="M-2840.455,728.164l18.32.294s.02-19.559-.228-23.413a.549.549,0,0,0-.506-.512c-2.358-.179-13.076-.949-17.706-.581a.528.528,0,0,0-.487.539Z" transform="translate(2843.187 -703.853)" fill="#91b3fa"/>
      <path id="Path_2973" data-name="Path 2973" d="M-2839.773,728.928l17.057.273-.347-22.052a.62.62,0,0,0-.5-.6c-4.34-.891-14.155-.707-16.364-.653a.446.446,0,0,0-.435.458Z" transform="translate(2842.92 -704.611)" fill="#bdd0fb"/>
      <path id="Path_2974" data-name="Path 2974" d="M-2817,705.267a.265.265,0,0,1-.279.236.276.276,0,0,1-.278-.25.275.275,0,0,1,.278-.25A.288.288,0,0,1-2817,705.267Z" transform="translate(2834.252 -704.29)" fill="#fff" opacity="0.6"/>
      <path id="Path_2975" data-name="Path 2975" d="M-2815.75,705.407a.266.266,0,0,1-.279.237.275.275,0,0,1-.278-.25.275.275,0,0,1,.278-.25A.289.289,0,0,1-2815.75,705.407Z" transform="translate(2833.777 -704.343)" fill="#fff" opacity="0.6"/>
      <path id="Path_2976" data-name="Path 2976" d="M-2814.411,705.544a.265.265,0,0,1-.279.236.276.276,0,0,1-.278-.25.275.275,0,0,1,.278-.25A.288.288,0,0,1-2814.411,705.544Z" transform="translate(2833.269 -704.396)" fill="#fff" opacity="0.6"/>
      <path id="Path_2977" data-name="Path 2977" d="M-2824.675,752.953a.073.073,0,0,1-.073-.072.072.072,0,0,1,.071-.073l.436-.007h0a.073.073,0,0,1,.073.072.072.072,0,0,1-.072.073l-.436.007Z" transform="translate(2836.986 -722.458)" fill="url(#linear-gradient-8)"/>
      <path id="Path_2978" data-name="Path 2978" d="M-2833.926,753.767h-.011a.072.072,0,0,1-.06-.083l.062-.389a.473.473,0,0,1,.46-.4l4.622-.068h0a.072.072,0,0,1,.073.071.073.073,0,0,1-.071.074l-4.623.068a.328.328,0,0,0-.319.276l-.062.389A.072.072,0,0,1-2833.926,753.767Z" transform="translate(2840.502 -722.468)" fill="url(#linear-gradient)"/>
      <g id="Group_1958" data-name="Group 1958" transform="translate(3.233 2.039)">
        <path id="Path_2979" data-name="Path 2979" d="M-2824.412,712.033h0l-.725-.008a.072.072,0,0,1-.072-.073.073.073,0,0,1,.072-.072h0l.725.008a.072.072,0,0,1,.072.073A.073.073,0,0,1-2824.412,712.033Zm-1.449-.016h0l-.725-.008a.073.073,0,0,1-.072-.073.071.071,0,0,1,.073-.072l.725.008a.073.073,0,0,1,.072.073A.073.073,0,0,1-2825.861,712.017Zm2.17-.016a.072.072,0,0,1-.068-.048.073.073,0,0,1,.044-.092.591.591,0,0,0,.391-.474.072.072,0,0,1,.082-.061.072.072,0,0,1,.062.082.735.735,0,0,1-.485.591A.081.081,0,0,1-2823.692,712Zm-3.619,0h0l-.724-.008a.073.073,0,0,1-.072-.073.073.073,0,0,1,.073-.072h0l.725.008a.073.073,0,0,1,.072.073A.072.072,0,0,1-2827.311,712Zm-1.449-.016h0l-.725-.008a.072.072,0,0,1-.071-.073.073.073,0,0,1,.073-.072h0l.725.008a.073.073,0,0,1,.072.073A.073.073,0,0,1-2828.76,711.985Zm-1.449-.016h0l-.725-.008a.073.073,0,0,1-.071-.073.073.073,0,0,1,.073-.072h0l.725.008a.073.073,0,0,1,.072.073A.072.072,0,0,1-2830.209,711.969Zm-1.449-.016h0l-.725-.008a.072.072,0,0,1-.071-.073.072.072,0,0,1,.073-.072h0l.725.008a.072.072,0,0,1,.071.073A.071.071,0,0,1-2831.659,711.953Zm-1.449-.016h0l-.725-.008a.073.073,0,0,1-.071-.073.072.072,0,0,1,.072-.072h0l.725.008a.072.072,0,0,1,.071.073A.072.072,0,0,1-2833.108,711.937Zm-1.45-.016h0l-.725-.008a.073.073,0,0,1-.072-.073.071.071,0,0,1,.074-.072l.725.008a.072.072,0,0,1,.071.074A.072.072,0,0,1-2834.558,711.921Zm-1.449-.016h0l-.725-.008a.072.072,0,0,1-.072-.073.072.072,0,0,1,.074-.072l.724.008a.073.073,0,0,1,.071.074A.072.072,0,0,1-2836.007,711.9Zm-1.45-.016h0l-.724-.008a.072.072,0,0,1-.072-.073.073.073,0,0,1,.072-.072h0l.725.008a.073.073,0,0,1,.072.074A.073.073,0,0,1-2837.457,711.888Zm-1.383-.231a.073.073,0,0,1-.055-.025.688.688,0,0,1-.164-.4l-.022-.327a.072.072,0,0,1,.068-.077.072.072,0,0,1,.077.068l.021.327a.552.552,0,0,0,.13.32.072.072,0,0,1-.009.1A.073.073,0,0,1-2838.84,711.658Zm15.594-.913a.073.073,0,0,1-.073-.072v-.725a.072.072,0,0,1,.073-.073.073.073,0,0,1,.073.073v.725A.073.073,0,0,1-2823.247,710.745Zm-15.81-.5a.074.074,0,0,1-.073-.068l-.048-.723a.072.072,0,0,1,.068-.077.073.073,0,0,1,.077.068l.048.723a.074.074,0,0,1-.068.077Zm15.81-.952a.072.072,0,0,1-.073-.073V708.5a.073.073,0,0,1,.073-.073.073.073,0,0,1,.073.073v.725A.073.073,0,0,1-2823.247,709.295Zm-15.906-.495a.073.073,0,0,1-.072-.068l-.048-.723c0-.016,0-.032,0-.048a.585.585,0,0,1,0-.066.073.073,0,0,1,.079-.066.072.072,0,0,1,.065.079c0,.017,0,.035,0,.053s0,.025,0,.038l.048.723a.073.073,0,0,1-.068.077Zm15.567-.828a.073.073,0,0,1-.034-.008.574.574,0,0,0-.221-.065l-.462-.037a.072.072,0,0,1-.067-.077.072.072,0,0,1,.078-.067l.463.037a.711.711,0,0,1,.278.081.073.073,0,0,1,.03.1A.072.072,0,0,1-2823.586,707.972Zm-1.435-.165h-.006l-.723-.053a.072.072,0,0,1-.067-.078.073.073,0,0,1,.077-.067l.723.054a.072.072,0,0,1,.067.078A.073.073,0,0,1-2825.021,707.808Zm-1.447-.1h-.005l-.723-.049a.072.072,0,0,1-.068-.077.072.072,0,0,1,.077-.068l.724.05a.073.073,0,0,1,.067.078A.073.073,0,0,1-2826.468,707.7Zm-1.448-.1h0l-.724-.045a.072.072,0,0,1-.068-.076.072.072,0,0,1,.077-.068l.724.045a.073.073,0,0,1,.068.077A.072.072,0,0,1-2827.916,707.605Zm-1.449-.088h0l-.724-.04a.072.072,0,0,1-.068-.076.072.072,0,0,1,.076-.068l.724.04a.072.072,0,0,1,.068.076A.073.073,0,0,1-2829.365,707.517Zm-1.448-.078h0l-.724-.035a.072.072,0,0,1-.069-.076.074.074,0,0,1,.075-.069l.725.035a.073.073,0,0,1,.069.076A.072.072,0,0,1-2830.813,707.439Zm-7.967-.009a.072.072,0,0,1-.068-.048.073.073,0,0,1,.043-.093.727.727,0,0,1,.171-.04c.172-.019.362-.035.567-.048a.073.073,0,0,1,.077.068.072.072,0,0,1-.068.077c-.2.014-.391.03-.561.048a.575.575,0,0,0-.137.032A.068.068,0,0,1-2838.78,707.431Zm6.517-.057h0l-.724-.027a.073.073,0,0,1-.07-.075.072.072,0,0,1,.075-.07l.725.027a.073.073,0,0,1,.069.076A.073.073,0,0,1-2832.262,707.374Zm-1.45-.051h0l-.725-.018a.073.073,0,0,1-.072-.074.077.077,0,0,1,.075-.071l.725.018a.073.073,0,0,1,.071.075A.073.073,0,0,1-2833.712,707.323Zm-3.625-.012a.073.073,0,0,1-.073-.07.072.072,0,0,1,.07-.075c.226-.008.47-.014.726-.018a.075.075,0,0,1,.073.071.072.072,0,0,1-.071.074c-.255,0-.5.01-.723.017Zm2.174-.018h0c-.247,0-.489,0-.725,0a.072.072,0,0,1-.073-.073.072.072,0,0,1,.073-.073h0q.354,0,.726.005a.072.072,0,0,1,.072.073A.073.073,0,0,1-2835.163,707.293Z" transform="translate(2839.274 -707.143)" fill="#7d97f4"/>
      </g>
      <g id="Group_1959" data-name="Group 1959" transform="translate(3.502 7.77)">
        <path id="Path_2980" data-name="Path 2980" d="M-2834.041,727.943h-.725a.073.073,0,0,1-.073-.073.073.073,0,0,1,.073-.073h.725a.072.072,0,0,1,.073.073A.073.073,0,0,1-2834.041,727.943Zm-1.449,0h-.724a.073.073,0,0,1-.073-.073.073.073,0,0,1,.073-.073h.724a.072.072,0,0,1,.073.073A.072.072,0,0,1-2835.49,727.943Zm-1.449,0h-.725a.073.073,0,0,1-.073-.073.072.072,0,0,1,.073-.073h.725a.072.072,0,0,1,.073.073A.073.073,0,0,1-2836.939,727.943Zm3.622-.019a.073.073,0,0,1-.071-.056.072.072,0,0,1,.054-.087.623.623,0,0,0,.451-.425.074.074,0,0,1,.091-.048.072.072,0,0,1,.048.09.77.77,0,0,1-.556.524Zm-5.01-.2a.073.073,0,0,1-.053-.022.784.784,0,0,1-.219-.527l-.005-.194a.073.073,0,0,1,.071-.074.073.073,0,0,1,.074.071l0,.194a.643.643,0,0,0,.179.43.073.073,0,0,1,0,.1A.074.074,0,0,1-2838.328,727.722Zm5.545-.995a.072.072,0,0,1-.073-.073v-.725a.072.072,0,0,1,.073-.072.072.072,0,0,1,.072.072v.725A.072.072,0,0,1-2832.783,726.727Zm-5.766-.4a.073.073,0,0,1-.073-.071l-.017-.725a.072.072,0,0,1,.071-.074.071.071,0,0,1,.074.071l.017.725a.072.072,0,0,1-.071.074Zm5.766-1.047a.073.073,0,0,1-.073-.073v-.725a.072.072,0,0,1,.073-.073.072.072,0,0,1,.072.073v.725A.073.073,0,0,1-2832.783,725.278Zm-5.8-.4a.073.073,0,0,1-.073-.071l-.017-.725a.073.073,0,0,1,.071-.074.072.072,0,0,1,.074.071l.017.725a.073.073,0,0,1-.071.074Zm5.8-1.048a.072.072,0,0,1-.073-.072v-.725a.072.072,0,0,1,.073-.072.072.072,0,0,1,.072.072v.725A.072.072,0,0,1-2832.783,723.828Zm-5.836-.4a.073.073,0,0,1-.073-.071l-.017-.725a.072.072,0,0,1,.071-.074.072.072,0,0,1,.074.071l.017.724a.073.073,0,0,1-.071.074Zm5.836-1.048a.072.072,0,0,1-.073-.073v-.725a.073.073,0,0,1,.073-.073.072.072,0,0,1,.072.073v.725A.072.072,0,0,1-2832.783,722.379Zm-5.871-.4a.073.073,0,0,1-.073-.071l-.017-.724a.073.073,0,0,1,.071-.074.073.073,0,0,1,.074.071l.017.725a.071.071,0,0,1-.07.074Zm5.871-1.049a.072.072,0,0,1-.073-.073v-.725a.072.072,0,0,1,.073-.073.072.072,0,0,1,.072.073v.725A.072.072,0,0,1-2832.783,720.929Zm-5.905-.4a.073.073,0,0,1-.073-.071l-.018-.725a.073.073,0,0,1,.071-.074.072.072,0,0,1,.074.071l.018.725a.073.073,0,0,1-.071.074Zm5.905-1.049a.073.073,0,0,1-.073-.073v-.725a.072.072,0,0,1,.073-.073.072.072,0,0,1,.072.073v.725A.073.073,0,0,1-2832.783,719.48Zm-5.94-.4a.073.073,0,0,1-.073-.071l-.017-.725a.072.072,0,0,1,.071-.074.071.071,0,0,1,.074.071l.017.725a.072.072,0,0,1-.071.074Zm5.94-1.049a.073.073,0,0,1-.073-.072v-.725a.072.072,0,0,1,.073-.072.072.072,0,0,1,.072.072v.725A.072.072,0,0,1-2832.783,718.031Zm-5.975-.4a.073.073,0,0,1-.073-.071l-.01-.431a.734.734,0,0,1,.071-.317.072.072,0,0,1,.1-.034.072.072,0,0,1,.035.1.587.587,0,0,0-.057.255v.014l.01.413a.072.072,0,0,1-.071.074Zm5.7-.963a.072.072,0,0,1-.043-.014.6.6,0,0,0-.362-.12h-.29a.072.072,0,0,1-.073-.073.072.072,0,0,1,.073-.073h.29a.741.741,0,0,1,.449.149.072.072,0,0,1,.015.1A.072.072,0,0,1-2833.055,716.668Zm-5.074-.134a.072.072,0,0,1-.072-.069.073.073,0,0,1,.069-.076h.759a.072.072,0,0,1,.072.073.073.073,0,0,1-.072.073h-.756Zm3.655,0h-.725a.073.073,0,0,1-.073-.073.072.072,0,0,1,.073-.073h.725a.072.072,0,0,1,.072.073A.073.073,0,0,1-2834.475,716.533Zm-1.45,0h-.724a.073.073,0,0,1-.073-.073.073.073,0,0,1,.073-.073h.724a.072.072,0,0,1,.073.073A.073.073,0,0,1-2835.925,716.533Z" transform="translate(2838.84 -716.388)" fill="#7d97f4"/>
      </g>
      <path id="Path_2981" data-name="Path 2981" d="M-2827.312,717.14v2.737a.54.54,0,0,0,.54.541l7.475.011a.729.729,0,0,0,.73-.729v-2.3a.674.674,0,0,0-.642-.673c-1.574-.074-5.633-.257-7.441-.248A.666.666,0,0,0-2827.312,717.14Z" transform="translate(2837.96 -708.65)" fill="#91b3fa"/>
      <g id="Group_1960" data-name="Group 1960" transform="translate(10.576 12.84)">
        <path id="Path_2982" data-name="Path 2982" d="M-2819.15,731.176l-.462-.007a.073.073,0,0,1-.071-.074.077.077,0,0,1,.074-.071l.459.007a.651.651,0,0,0,.233-.042.073.073,0,0,1,.094.043.073.073,0,0,1-.043.093A.8.8,0,0,1-2819.15,731.176Zm-1.185-.018h0l-.725-.01a.072.072,0,0,1-.071-.074.075.075,0,0,1,.073-.071l.725.011a.073.073,0,0,1,.072.074A.073.073,0,0,1-2820.335,731.158Zm-1.449-.022h0l-.725-.011a.073.073,0,0,1-.071-.074.075.075,0,0,1,.074-.071l.725.011a.072.072,0,0,1,.071.074A.072.072,0,0,1-2821.784,731.136Zm-1.449-.022h0l-.725-.01a.073.073,0,0,1-.071-.074.072.072,0,0,1,.073-.071h0l.724.011a.072.072,0,0,1,.072.073A.072.072,0,0,1-2823.234,731.114Zm-1.449-.022h0l-.724-.011a.073.073,0,0,1-.072-.073.073.073,0,0,1,.073-.072h0l.725.011a.072.072,0,0,1,.071.074A.072.072,0,0,1-2824.683,731.092Zm-1.449-.022h0l-.487-.007a.845.845,0,0,1-.255-.045.073.073,0,0,1-.045-.092.073.073,0,0,1,.093-.045.685.685,0,0,0,.21.037l.487.007a.072.072,0,0,1,.071.073A.073.073,0,0,1-2826.132,731.07Zm7.7-.464-.016,0a.073.073,0,0,1-.055-.087.657.657,0,0,0,.017-.15v-.024l-.019-.531a.073.073,0,0,1,.07-.075.072.072,0,0,1,.075.07l.019.531v.029a.8.8,0,0,1-.021.182A.072.072,0,0,1-2818.433,730.606Zm-8.9-.092a.072.072,0,0,1-.07-.053.822.822,0,0,1-.03-.22v-.521a.072.072,0,0,1,.072-.073.073.073,0,0,1,.073.073v.521a.688.688,0,0,0,.024.181.072.072,0,0,1-.05.089Zm8.872-1.356a.072.072,0,0,1-.073-.07l-.025-.724a.073.073,0,0,1,.07-.075.072.072,0,0,1,.075.07l.025.724a.072.072,0,0,1-.07.075Zm-8.9-.091a.072.072,0,0,1-.072-.072v-.725a.072.072,0,0,1,.072-.073.073.073,0,0,1,.073.073v.725A.073.073,0,0,1-2827.357,729.067Zm8.849-1.358a.072.072,0,0,1-.072-.069l-.026-.725a.073.073,0,0,1,.07-.075.073.073,0,0,1,.075.07l.025.724a.073.073,0,0,1-.07.075Zm-8.849-.092a.072.072,0,0,1-.072-.072v-.725a.072.072,0,0,1,.072-.073.073.073,0,0,1,.073.073v.725A.073.073,0,0,1-2827.357,727.618Zm8.8-1.356a.073.073,0,0,1-.073-.07l-.025-.725a.073.073,0,0,1,.07-.075.072.072,0,0,1,.075.07l.025.725a.073.073,0,0,1-.07.075Zm-8.8-.093a.072.072,0,0,1-.072-.073v-.725a.806.806,0,0,1,.044-.266.072.072,0,0,1,.092-.044.073.073,0,0,1,.045.092.654.654,0,0,0-.037.218v.725A.073.073,0,0,1-2827.357,726.169Zm8.48-1.268a.073.073,0,0,1-.046-.017.738.738,0,0,0-.474-.172h-.16a.072.072,0,0,1-.073-.073.073.073,0,0,1,.073-.073h.16a.888.888,0,0,1,.567.205.073.073,0,0,1,.009.1A.07.07,0,0,1-2818.876,724.9Zm-7.926-.167a.072.072,0,0,1-.07-.055.073.073,0,0,1,.052-.088.824.824,0,0,1,.195-.024h.546a.073.073,0,0,1,.073.073.073.073,0,0,1-.073.073h-.546a.688.688,0,0,0-.159.019A.058.058,0,0,1-2826.8,724.734Zm6.521-.022h-.725a.072.072,0,0,1-.073-.073.073.073,0,0,1,.073-.073h.725a.073.073,0,0,1,.073.073A.073.073,0,0,1-2820.281,724.712Zm-1.45,0h-.725a.073.073,0,0,1-.073-.073.073.073,0,0,1,.073-.073h.725a.073.073,0,0,1,.072.073A.072.072,0,0,1-2821.731,724.712Zm-1.449,0h-.725a.073.073,0,0,1-.073-.073.073.073,0,0,1,.073-.073h.725a.073.073,0,0,1,.073.073A.072.072,0,0,1-2823.18,724.712Zm-1.45,0h-.724a.072.072,0,0,1-.073-.073.073.073,0,0,1,.073-.073h.724a.073.073,0,0,1,.073.073A.072.072,0,0,1-2824.63,724.712Z" transform="translate(2827.429 -724.567)" fill="#7d97f4"/>
      </g>
      <g id="Group_1961" data-name="Group 1961" transform="translate(3.792 20.089)">
        <path id="Path_2983" data-name="Path 2983" d="M-2822.771,740.829a.073.073,0,0,1-.073-.073v-.076a.073.073,0,0,1,.073-.073.072.072,0,0,1,.073.073v.076A.072.072,0,0,1-2822.771,740.829Zm-15.529-.275a.073.073,0,0,1-.073-.073v-.725a.073.073,0,0,1,.073-.073.072.072,0,0,1,.073.073v.725A.072.072,0,0,1-2838.3,740.555Zm15.529-.526a.073.073,0,0,1-.073-.073v-.725a.073.073,0,0,1,.073-.073.072.072,0,0,1,.073.073v.725A.073.073,0,0,1-2822.771,740.029Zm-15.529-.924a.073.073,0,0,1-.073-.073v-.725a.073.073,0,0,1,.073-.073.072.072,0,0,1,.073.073v.725A.073.073,0,0,1-2838.3,739.105Zm15.529-.526a.073.073,0,0,1-.073-.072v-.725a.073.073,0,0,1,.073-.073.072.072,0,0,1,.073.073v.725A.073.073,0,0,1-2822.771,738.58Zm-15.529-.924a.073.073,0,0,1-.073-.072v-.536a.784.784,0,0,1,.027-.205.072.072,0,0,1,.089-.051.073.073,0,0,1,.052.089.62.62,0,0,0-.022.167v.536A.073.073,0,0,1-2838.3,737.656Zm15.482-.521a.072.072,0,0,1-.068-.049.753.753,0,0,0-.448-.458.073.073,0,0,1-.042-.094.072.072,0,0,1,.093-.042.9.9,0,0,1,.534.545.073.073,0,0,1-.045.092A.065.065,0,0,1-2822.817,737.135Zm-1.209-.56h0l-.725-.009a.073.073,0,0,1-.072-.074.074.074,0,0,1,.074-.071l.725.009a.072.072,0,0,1,.071.073A.073.073,0,0,1-2824.026,736.575Zm-1.449-.018h0l-.725-.009a.072.072,0,0,1-.072-.073.072.072,0,0,1,.074-.071l.725.009a.073.073,0,0,1,.071.074A.072.072,0,0,1-2825.475,736.557Zm-1.449-.018h0l-.724-.009a.073.073,0,0,1-.072-.073.075.075,0,0,1,.073-.072l.725.009a.072.072,0,0,1,.071.073A.073.073,0,0,1-2826.925,736.539Zm-1.449-.019h0l-.724-.009a.073.073,0,0,1-.072-.074.073.073,0,0,1,.073-.071h0l.725.009a.073.073,0,0,1,.072.074A.072.072,0,0,1-2828.374,736.52Zm-1.449-.018h0l-.725-.009a.072.072,0,0,1-.071-.073.075.075,0,0,1,.073-.072l.725.009a.072.072,0,0,1,.072.073A.073.073,0,0,1-2829.823,736.5Zm-1.449-.019h0l-.725-.009a.073.073,0,0,1-.072-.074.076.076,0,0,1,.073-.071l.725.009a.072.072,0,0,1,.072.073A.072.072,0,0,1-2831.272,736.484Zm-1.449-.018h0l-.725-.009a.072.072,0,0,1-.071-.073.073.073,0,0,1,.073-.072h0l.725.009a.073.073,0,0,1,.072.074A.073.073,0,0,1-2832.722,736.466Zm-1.449-.018h0l-.725-.009a.073.073,0,0,1-.072-.074.073.073,0,0,1,.073-.071h0l.725.009a.073.073,0,0,1,.072.073A.073.073,0,0,1-2834.171,736.448Zm-3.621-.012a.072.072,0,0,1-.069-.052.072.072,0,0,1,.049-.09.784.784,0,0,1,.227-.034h.01l.505.006a.073.073,0,0,1,.072.073.072.072,0,0,1-.073.072l-.505-.007-.009-.073v.073a.647.647,0,0,0-.186.027A.062.062,0,0,1-2837.792,736.435Zm2.171-.006h0l-.725-.009a.072.072,0,0,1-.071-.073.07.07,0,0,1,.073-.071l.725.009a.073.073,0,0,1,.072.074A.072.072,0,0,1-2835.62,736.429Z" transform="translate(2838.372 -736.26)" fill="#7d97f4"/>
      </g>
    </g>
    <g id="Group_1964" data-name="Group 1964" transform="translate(-7729.087 14384.343)">
      <path id="Path_2984" data-name="Path 2984" d="M-2875.093,742.488h-17.447a1.008,1.008,0,0,1-1.007-1.007V724.634a1.008,1.008,0,0,1,1-1.007l17.586-.047a1.007,1.007,0,0,1,1.01,1.013l-.14,16.893A1.007,1.007,0,0,1-2875.093,742.488Z" transform="translate(2893.547 -723.58)" fill="#91b3fa"/>
      <path id="Path_2985" data-name="Path 2985" d="M-2875.345,725.66l-15.6.1a1.022,1.022,0,0,0-1.016,1.027l.109,14.168a1.023,1.023,0,0,0,1,1.017l15.157.276a1.022,1.022,0,0,0,1.041-1.008l.334-14.541A1.022,1.022,0,0,0-2875.345,725.66Z" transform="translate(2892.944 -724.371)" fill="url(#linear-gradient)"/>
      <rect id="Rectangle_647" data-name="Rectangle 647" width="12.632" height="0.719" rx="0.36" transform="translate(4.334 2.298)" fill="#7d97f4"/>
      <path id="Path_2986" data-name="Path 2986" d="M-2875.163,729.764h0a.305.305,0,0,1-.3.29l-10.512.191a.305.305,0,0,1-.311-.306v-.025a.306.306,0,0,1,.3-.306l10.512-.167A.306.306,0,0,1-2875.163,729.764Z" transform="translate(2890.787 -725.808)" fill="#7d97f4"/>
      <g id="Group_1963" data-name="Group 1963" transform="translate(1.608 5.158)">
        <path id="Path_2987" data-name="Path 2987" d="M-2875.865,743.816h-.01l-14.218-.17a.866.866,0,0,1-.615-.265.866.866,0,0,1-.245-.623l.366-10.005a.864.864,0,0,1,.267-.609.86.86,0,0,1,.621-.243l14.194.276a.873.873,0,0,1,.854.886v0l-.342,9.9A.873.873,0,0,1-2875.865,743.816Zm-13.852-11.626a.578.578,0,0,0-.4.162.577.577,0,0,0-.178.408l-.366,10.005a.577.577,0,0,0,.165.413.576.576,0,0,0,.41.177l14.218.17a.58.58,0,0,0,.588-.571l.341-9.9a.582.582,0,0,0-.57-.59l-14.194-.277Zm14.92.87h0Z" transform="translate(2890.953 -731.901)" fill="#7d97f4"/>
      </g>
      <path id="Path_2988" data-name="Path 2988" d="M-2874.771,735.3h-15.485a.144.144,0,0,1-.145-.144.145.145,0,0,1,.145-.145h15.485a.145.145,0,0,1,.145.145A.145.145,0,0,1-2874.771,735.3Z" transform="translate(2892.351 -727.926)" fill="#7d97f4"/>
    </g>
    <g id="Group_1965" data-name="Group 1965" transform="translate(-7725.451 14368.474)">
      <path id="Path_2989" data-name="Path 2989" d="M-2887.359,697.988c2.91.782,19.657,6.029,17.557,22.629,0,0-11.915-.616-17.87-22.316A.255.255,0,0,1-2887.359,697.988Z" transform="translate(2887.681 -697.979)" fill="#bdd0fb"/>
      <path id="Path_2990" data-name="Path 2990" d="M-2884.175,701.792c.76.593,1.506,1.2,2.248,1.815s1.475,1.238,2.2,1.87q2.181,1.895,4.264,3.9c1.384,1.34,2.729,2.722,4,4.176q.955,1.087,1.829,2.244a24.328,24.328,0,0,1,1.618,2.409.144.144,0,0,1-.052.2.145.145,0,0,1-.2-.053h0a24.176,24.176,0,0,0-1.583-2.392q-.857-1.154-1.8-2.243c-1.252-1.455-2.584-2.843-3.955-4.19s-2.785-2.651-4.228-3.923q-1.081-.955-2.185-1.883c-.736-.619-1.478-1.232-2.231-1.828h0a.061.061,0,0,1-.01-.086A.062.062,0,0,1-2884.175,701.792Z" transform="translate(2886.386 -699.424)" fill="#dce5fe"/>
    </g>
    <g id="Group_1966" data-name="Group 1966" transform="translate(-7714.548 14360.483)">
      <path id="Path_2991" data-name="Path 2991" d="M-2868.421,685.161c2.432,2.181,16.072,15.448,5.921,30.483,0,0-11.228-6.423-6.376-30.333A.277.277,0,0,1-2868.421,685.161Z" transform="translate(2870.093 -685.09)" fill="#91b3fa"/>
      <path id="Path_2992" data-name="Path 2992" d="M-2866.389,690.36c.445.945.87,1.9,1.286,2.855s.821,1.919,1.215,2.886c.788,1.933,1.532,3.884,2.217,5.858s1.309,3.969,1.824,6q.391,1.518.671,3.065a26.553,26.553,0,0,1,.387,3.121.145.145,0,0,1-.137.153.145.145,0,0,1-.153-.136h0a26.044,26.044,0,0,0-.363-3.089q-.266-1.536-.646-3.052c-.5-2.021-1.111-4.015-1.779-5.989s-1.4-3.928-2.174-5.864q-.58-1.452-1.195-2.891c-.409-.958-.827-1.914-1.265-2.86h0a.062.062,0,0,1,.03-.082A.061.061,0,0,1-2866.389,690.36Z" transform="translate(2868.729 -687.08)" fill="#dce5fe"/>
    </g>
    <g id="Group_1969" data-name="Group 1969" transform="translate(-7721.271 14371.919)">
      <path id="Path_2993" data-name="Path 2993" d="M-2879.411,731.883s4.244,11.192,5.585,13.521c1.556,2.7,6.1.981,5.876-1.281s-5.537-11.611-5.537-11.611Z" transform="translate(2880.358 -714.312)" fill="url(#linear-gradient-11)"/>
      <path id="Path_2994" data-name="Path 2994" d="M-2870.6,713.123l26.377-9.145-.277,24.749-26.821-5.984Z" transform="translate(2877.283 -703.705)" fill="url(#linear-gradient-12)"/>
      <ellipse id="Ellipse_91" data-name="Ellipse 91" cx="2.591" cy="12.719" rx="2.591" ry="12.719" transform="translate(30.492)" fill="url(#linear-gradient-13)"/>
      <path id="Path_2995" data-name="Path 2995" d="M-2828.379,728.551c-.234-.239-.744-1.157-1.182-3.534a48.48,48.48,0,0,1-.655-8.387,48.484,48.484,0,0,1,.655-8.387c.438-2.377.948-3.3,1.182-3.534.234.239.744,1.157,1.182,3.534a48.51,48.51,0,0,1,.655,8.387,48.506,48.506,0,0,1-.655,8.387C-2827.634,727.393-2828.144,728.312-2828.379,728.551Z" transform="translate(2861.658 -703.983)" fill="url(#linear-gradient-14)"/>
      <g id="Group_1968" data-name="Group 1968" transform="translate(31.442 0.726)">
        <g id="Group_1967" data-name="Group 1967" clip-path="url(#clip-path)">
          <path id="Path_2996" data-name="Path 2996" d="M-2826.579,721.388c0,2.161-1.164,3.913-3.468,3.913a4.049,4.049,0,0,1-4.172-3.913,4.049,4.049,0,0,1,4.172-3.913C-2827.743,717.475-2826.579,719.227-2826.579,721.388Z" transform="translate(2831.738 -709.561)" fill="url(#linear-gradient-15)"/>
        </g>
      </g>
      <path id="Path_2998" data-name="Path 2998" d="M-2878.511,717.809a14.78,14.78,0,0,1,4.944.245,26.4,26.4,0,0,0,.2,10.336h-5.427a1.759,1.759,0,0,1-1.738-1.483,24.719,24.719,0,0,1-.249-6.9A2.6,2.6,0,0,1-2878.511,717.809Z" transform="translate(2880.938 -708.923)" fill="url(#linear-gradient-16)"/>
      <path id="Path_2999" data-name="Path 2999" d="M-2874.6,721.306h-4.228a.379.379,0,0,1-.338-.2.379.379,0,0,1,.015-.394.11.11,0,0,1,.151-.032.11.11,0,0,1,.032.151.166.166,0,0,0-.007.172.166.166,0,0,0,.147.087h4.228a.168.168,0,0,0,.168-.168v-.3a.168.168,0,0,0-.168-.168h-4.259a.109.109,0,0,1-.109-.109.109.109,0,0,1,.109-.108h4.259a.386.386,0,0,1,.386.386v.3A.386.386,0,0,1-2874.6,721.306Z" transform="translate(2880.282 -709.884)" fill="url(#linear-gradient-17)"/>
      <path id="Path_3000" data-name="Path 3000" d="M-2875.207,724.326h-4.228a.38.38,0,0,1-.338-.2.379.379,0,0,1,.015-.394.108.108,0,0,1,.15-.032.108.108,0,0,1,.032.15.168.168,0,0,0-.006.172.165.165,0,0,0,.147.088h4.228a.168.168,0,0,0,.168-.168v-.3a.168.168,0,0,0-.168-.168h-4.259a.109.109,0,0,1-.109-.109.109.109,0,0,1,.109-.109h4.259a.386.386,0,0,1,.385.386v.3A.386.386,0,0,1-2875.207,724.326Z" transform="translate(2880.514 -711.032)" fill="url(#linear-gradient-18)"/>
      <path id="Path_3001" data-name="Path 3001" d="M-2864.044,713.619a.108.108,0,0,1-.1-.076.109.109,0,0,1,.07-.137l19.978-6.357a.109.109,0,0,1,.136.071.108.108,0,0,1-.071.136l-19.977,6.358A.122.122,0,0,1-2864.044,713.619Z" transform="translate(2874.558 -704.871)" fill="url(#linear-gradient)"/>
      <path id="Path_3002" data-name="Path 3002" d="M-2868.4,719.04a.109.109,0,0,1-.1-.068.108.108,0,0,1,.059-.141l1.029-.42a.108.108,0,0,1,.141.06.108.108,0,0,1-.06.141l-1.028.42A.106.106,0,0,1-2868.4,719.04Z" transform="translate(2876.215 -709.188)" fill="url(#linear-gradient-20)"/>
      <path id="Path_3003" data-name="Path 3003" d="M-2874.6,727.864h-4.228a.381.381,0,0,1-.338-.2.379.379,0,0,1,.015-.394.11.11,0,0,1,.151-.032.109.109,0,0,1,.032.15.167.167,0,0,0-.007.172.166.166,0,0,0,.147.087h4.228a.168.168,0,0,0,.168-.168v-.3a.168.168,0,0,0-.168-.169h-4.259a.109.109,0,0,1-.109-.108.109.109,0,0,1,.109-.109h4.259a.386.386,0,0,1,.386.386v.3A.386.386,0,0,1-2874.6,727.864Z" transform="translate(2880.282 -712.377)" fill="url(#linear-gradient-17)"/>
      <path id="Path_3004" data-name="Path 3004" d="M-2873.96,731.79h-4.228a.38.38,0,0,1-.339-.2.38.38,0,0,1,.015-.394.109.109,0,0,1,.15-.032.109.109,0,0,1,.032.151.165.165,0,0,0-.006.172.166.166,0,0,0,.147.087h4.228a.168.168,0,0,0,.168-.168v-.3a.168.168,0,0,0-.168-.168h-4.259a.109.109,0,0,1-.108-.109.108.108,0,0,1,.108-.108h4.259a.386.386,0,0,1,.386.385v.3A.386.386,0,0,1-2873.96,731.79Z" transform="translate(2880.04 -713.869)" fill="url(#linear-gradient-6)"/>
      <path id="Path_3005" data-name="Path 3005" d="M-2825.384,721.593a.11.11,0,0,1-.109-.1,3.073,3.073,0,0,0-1.091-2.346,3.844,3.844,0,0,0-2.738-.562.109.109,0,0,1-.128-.086.108.108,0,0,1,.086-.127,4,4,0,0,1,2.913.6,3.284,3.284,0,0,1,1.175,2.5.109.109,0,0,1-.1.117Z" transform="translate(2861.368 -709.154)" fill="url(#linear-gradient)"/>
    </g>
    <g id="Group_1970" data-name="Group 1970" transform="translate(-7703.825 14388.734)">
      <path id="Path_3006" data-name="Path 3006" d="M-2851.308,750.367c-.247-.312-2.726-3.6-.692-7.231a.138.138,0,0,1,.237-.008,3.368,3.368,0,0,1,.241,3.26,4.594,4.594,0,0,0,.364,3.881.089.089,0,0,1-.1.128h0A.088.088,0,0,1-2851.308,750.367Z" transform="translate(2852.796 -735.377)" fill="#91b3fa"/>
      <path id="Path_3007" data-name="Path 3007" d="M-2850.025,745.78a.081.081,0,0,1-.058-.051,7.611,7.611,0,0,1-.356-4.329c.679-2.146,4.66-7.593.318-10.578a.087.087,0,0,1,.061-.158,4.334,4.334,0,0,1,4.015,4.694c-.273,4.455-6.043,3.5-3.883,10.316a.082.082,0,0,1-.1.106Z" transform="translate(2851.976 -730.663)" fill="#91b3fa"/>
      <path id="Path_3008" data-name="Path 3008" d="M-2849.473,751.636a.081.081,0,0,1-.06-.055c-.149-.455-1.355-4.3.405-5.011,1.816-.731,4.544.493,6.82-.7a.1.1,0,0,1,.135.114,3.365,3.365,0,0,1-3.193,2.376c-2.649.014-3.377-.538-3.84.775a5.309,5.309,0,0,0-.166,2.407.083.083,0,0,1-.1.093Z" transform="translate(2851.761 -736.439)" fill="#91b3fa"/>
      <path id="Path_3009" data-name="Path 3009" d="M-2842.8,746.7a2.809,2.809,0,0,1-.981.661,3.462,3.462,0,0,1-.567.19c-.1.029-.2.043-.293.064a2.8,2.8,0,0,1-.3.042,4.763,4.763,0,0,1-1.193-.02c-.2-.022-.384-.059-.574-.086s-.377-.053-.565-.069a4.164,4.164,0,0,0-1.106.016,1.665,1.665,0,0,0-.5.171,1.136,1.136,0,0,0-.38.344,1.709,1.709,0,0,0-.232.483,3.337,3.337,0,0,0-.111.548,7.578,7.578,0,0,0-.031,1.146.03.03,0,0,1-.028.03.03.03,0,0,1-.03-.024,5.742,5.742,0,0,1-.095-1.166,3.007,3.007,0,0,1,.072-.594,1.892,1.892,0,0,1,.231-.573,1.421,1.421,0,0,1,.449-.45,1.789,1.789,0,0,1,.584-.231,4.092,4.092,0,0,1,1.2-.051c.2.015.391.04.585.065s.389.06.572.082a5.567,5.567,0,0,0,1.117.05c.093,0,.187-.009.279-.023s.186-.018.277-.039.185-.031.275-.057.182-.042.271-.073a3.52,3.52,0,0,0,1.015-.485l0,0a.034.034,0,0,1,.048.008A.034.034,0,0,1-2842.8,746.7Z" transform="translate(2851.649 -736.738)" fill="#dce5fe"/>
      <path id="Path_3010" data-name="Path 3010" d="M-2851.79,744.857c-.089.441-.171.881-.235,1.321-.031.22-.06.44-.076.662s-.022.443-.021.665c0,.111.007.222.012.333s.017.221.031.331.031.219.047.33.04.218.068.326a5.259,5.259,0,0,0,.471,1.251h0a.029.029,0,0,1-.013.04.029.029,0,0,1-.038-.009,4.3,4.3,0,0,1-.6-1.232,4.661,4.661,0,0,1-.159-.673,5.4,5.4,0,0,1-.072-.689,6,6,0,0,1,.006-.692,6.47,6.47,0,0,1,.076-.687,4.442,4.442,0,0,1,.42-1.311.047.047,0,0,1,.064-.02.048.048,0,0,1,.024.051Z" transform="translate(2852.64 -736.036)" fill="#dce5fe"/>
    </g>
    <g id="Group_1972" data-name="Group 1972" transform="translate(-7705.824 14373.049)">
      <path id="Path_3011" data-name="Path 3011" d="M-2848.9,721.627c-.005-.068-.074-.125-.19-.172.126-.07.2-.144.19-.218-.018-.221-.718-.345-1.565-.277s-1.518.3-1.5.524c.005.067.074.125.19.172-.126.069-.2.144-.19.217s.074.125.19.172c-.126.07-.2.144-.19.218s.074.125.19.172c-.126.069-.2.144-.19.218.008.1.15.176.378.228a1.977,1.977,0,0,0,.006.239c.033.408.492.728,1.1.728s1.132-.436,1.138-.845a1.876,1.876,0,0,0-.012-.267c.291-.1.468-.215.458-.33-.005-.067-.074-.125-.19-.172.126-.07.2-.144.19-.218s-.074-.125-.19-.172C-2848.961,721.774-2848.892,721.7-2848.9,721.627Z" transform="translate(2854.478 -711.283)" fill="url(#linear-gradient-24)"/>
      <g id="Group_1971" data-name="Group 1971" transform="translate(2.741 10.193)">
        <path id="Path_3012" data-name="Path 3012" d="M-2850.6,724.075a3.638,3.638,0,0,1-.671-.055.019.019,0,0,1-.016-.024.019.019,0,0,1,.023-.016,4.38,4.38,0,0,0,1.118.035,4.84,4.84,0,0,0,.938-.162.02.02,0,0,1,.025.014.02.02,0,0,1-.013.025,4.813,4.813,0,0,1-.946.163C-2850.3,724.069-2850.449,724.075-2850.6,724.075Z" transform="translate(2851.479 -722.582)" fill="url(#linear-gradient-25)"/>
        <path id="Path_3013" data-name="Path 3013" d="M-2850.682,723.381a3.18,3.18,0,0,1-.825-.09.02.02,0,0,1-.014-.025.021.021,0,0,1,.025-.014,3.921,3.921,0,0,0,1.263.069,3.975,3.975,0,0,0,1.229-.267.019.019,0,0,1,.027.01.02.02,0,0,1-.01.027,4.018,4.018,0,0,1-1.242.271C-2850.383,723.375-2850.536,723.381-2850.682,723.381Z" transform="translate(2851.569 -722.278)" fill="url(#linear-gradient-26)"/>
        <path id="Path_3014" data-name="Path 3014" d="M-2850.716,722.754a2.979,2.979,0,0,1-.869-.1.021.021,0,0,1-.013-.026.02.02,0,0,1,.026-.012,3.723,3.723,0,0,0,1.31.084,3.97,3.97,0,0,0,1.229-.268.02.02,0,0,1,.027.01.02.02,0,0,1-.01.027,4.018,4.018,0,0,1-1.242.271C-2850.415,722.748-2850.569,722.754-2850.716,722.754Z" transform="translate(2851.599 -722.039)" fill="url(#linear-gradient-27)"/>
        <path id="Path_3015" data-name="Path 3015" d="M-2850.628,722.128a3.5,3.5,0,0,1-.731-.067.02.02,0,0,1-.015-.024.02.02,0,0,1,.024-.016,4.246,4.246,0,0,0,1.175.047,3.99,3.99,0,0,0,1.223-.265.02.02,0,0,1,.027.011.02.02,0,0,1-.01.027,4.04,4.04,0,0,1-1.236.268C-2850.328,722.122-2850.482,722.128-2850.628,722.128Z" transform="translate(2851.514 -721.802)" fill="url(#linear-gradient-28)"/>
      </g>
      <path id="Path_3016" data-name="Path 3016" d="M-2854.073,713.74a2.87,2.87,0,0,0-.513-1,6.625,6.625,0,0,1-1.428-3.69c-.147-2.565,2.127-3.848,4.2-3.674s4.123,1.72,3.9,4.1a5.51,5.51,0,0,1-1.572,3.221,3.4,3.4,0,0,0-.815,1.445,1.844,1.844,0,0,1-1.659,1.539C-2853.3,715.751-2853.859,714.5-2854.073,713.74Z" transform="translate(2856.02 -705.36)" fill="url(#linear-gradient-29)"/>
      <path id="Path_3017" data-name="Path 3017" d="M-2848.914,718.2l.727-4.723c.015-.1.063-.163.107-.146s.068.109.053.207v.008l-.827,4.679c-.006.035-.024.058-.04.05S-2848.919,718.239-2848.914,718.2Z" transform="translate(2853.32 -708.39)" fill="url(#linear-gradient-30)"/>
      <path id="Path_3018" data-name="Path 3018" d="M-2850.675,718.265l-.726-4.723c-.015-.1-.063-.163-.107-.146s-.068.11-.053.207v.009l.827,4.679c.006.035.024.057.04.05S-2850.67,718.3-2850.675,718.265Z" transform="translate(2854.327 -708.413)" fill="url(#linear-gradient-31)"/>
      <path id="Path_3019" data-name="Path 3019" d="M-2849.056,712.569a.075.075,0,0,0-.095-.025l-.4.189-.14-.4a.086.086,0,0,0-.049-.049.1.1,0,0,0-.125.038v0l-.333.606-.309-.863h0a.1.1,0,0,0-.047-.053.121.121,0,0,0-.153.03l-.465.64a.056.056,0,0,0,.016.081.077.077,0,0,0,.1-.01l.41-.457.368.821h0a.064.064,0,0,0,.032.032.078.078,0,0,0,.1-.025l.355-.571.134.289v0l0,.006a.076.076,0,0,0,.1.025l.48-.224A.057.057,0,0,0-2849.056,712.569Z" transform="translate(2854.183 -707.883)" fill="url(#linear-gradient-32)"/>
      <path id="Path_3020" data-name="Path 3020" d="M-2845.516,715.795a.11.11,0,0,1-.065-.021.108.108,0,0,1-.022-.152,5.364,5.364,0,0,0,.336-.51.108.108,0,0,1,.148-.04.108.108,0,0,1,.039.148,5.617,5.617,0,0,1-.349.531A.109.109,0,0,1-2845.516,715.795Z" transform="translate(2852.069 -709.046)" fill="url(#linear-gradient-33)"/>
      <path id="Path_3021" data-name="Path 3021" d="M-2844.553,712.412a.1.1,0,0,1-.042-.009.109.109,0,0,1-.057-.143,4.283,4.283,0,0,0,.1-3.251.11.11,0,0,1,.053-.145.109.109,0,0,1,.145.054,4.438,4.438,0,0,1-.1,3.429A.109.109,0,0,1-2844.553,712.412Z" transform="translate(2851.702 -706.688)" fill="url(#linear-gradient-34)"/>
    </g>
    <g id="Group_1979" data-name="Group 1979" transform="translate(-7722.104 14390.433)">
      <g id="Group_1973" data-name="Group 1973" transform="translate(3.328 9.484)">
        <rect id="Rectangle_648" data-name="Rectangle 648" width="0.332" height="3.592" transform="translate(2.052 4.397) rotate(180)" fill="url(#linear-gradient-35)"/>
        <path id="Rectangle_649" data-name="Rectangle 649" d="M0,0H2.909a0,0,0,0,1,0,0V.073a.143.143,0,0,1-.143.143H.143A.143.143,0,0,1,0,.073V0A0,0,0,0,1,0,0Z" transform="translate(3.341 4.466) rotate(180)" fill="url(#linear-gradient-36)"/>
        <rect id="Rectangle_650" data-name="Rectangle 650" width="3.658" height="1.037" rx="0.519" fill="url(#linear-gradient-36)"/>
      </g>
      <g id="Group_1974" data-name="Group 1974" transform="translate(2.954 7.219)">
        <path id="Path_3022" data-name="Path 3022" d="M-2870.645,746.137a2.9,2.9,0,0,1,1.048.448.275.275,0,0,1,.122.265,11.723,11.723,0,0,1-1.24,3.894.419.419,0,0,0-.04.288l.157.728.29.272h-.748l-.5-1.348.213-.067a.4.4,0,0,0,.281-.377l.025-1.446a1.645,1.645,0,0,1,.395-1.088l-1.194-.058Z" transform="translate(2875.357 -745.463)" fill="url(#linear-gradient-38)"/>
        <path id="Path_3023" data-name="Path 3023" d="M-2869.944,754.907c.068.089-.733.206-1.138.012a4.484,4.484,0,0,1-.561-1.478s.045-.1.374-.079c0,0,.188,1.156.387,1.285a.791.791,0,0,0,.556.013A1.176,1.176,0,0,1-2869.944,754.907Z" transform="translate(2875.284 -748.207)" fill="url(#linear-gradient-39)"/>
        <path id="Path_3024" data-name="Path 3024" d="M-2871.59,747.841c.006-.011,1.285-.154,1.285-.154a2.958,2.958,0,0,0,.089.924,19.966,19.966,0,0,0,2.009,2.855l-.2.624a3.17,3.17,0,0,0,1.8.109l-1.221-.733s-1.142-3.892-1.842-4.587l-1.282-.444Z" transform="translate(2875.264 -745.576)" fill="url(#linear-gradient-40)"/>
        <path id="Path_3025" data-name="Path 3025" d="M-2876.712,745.049a6.043,6.043,0,0,0-.8,1.6c-.061.5.2.7.975.737s2.837.033,2.837.033l1.762-1.506s-1.285-.458-1.618-.588S-2876.712,745.049-2876.712,745.049Z" transform="translate(2877.518 -745.049)" fill="url(#linear-gradient-41)"/>
        <path id="Path_3026" data-name="Path 3026" d="M-2866.4,755.219a.361.361,0,0,0-.069.434,8.846,8.846,0,0,0,2.136.163s-.095-.216-.608-.462l.038.029a.061.061,0,0,1-.041.11A4.718,4.718,0,0,1-2866.4,755.219Z" transform="translate(2873.338 -748.915)" fill="url(#linear-gradient-42)"/>
      </g>
      <g id="Group_1975" data-name="Group 1975" transform="translate(2.475 0)">
        <path id="Path_3027" data-name="Path 3027" d="M-2874.683,742.379a16.7,16.7,0,0,0,1.281-1.359,1.147,1.147,0,0,0,.195-1.033,14.136,14.136,0,0,0-.567-1.428c-.048-.161-1.01-.154-1.01-.154a7.377,7.377,0,0,0-2.638,3.311l.836.26a9.723,9.723,0,0,1,.982-1.356,5.382,5.382,0,0,0-.875,1.573Z" transform="translate(2877.961 -735.305)" fill="url(#linear-gradient-43)"/>
        <path id="Path_3028" data-name="Path 3028" d="M-2872.013,737.126c-.01.033-.261.866-.281.883a1.408,1.408,0,0,1-.8-.125l.424-.888Z" transform="translate(2876.316 -734.769)" fill="url(#linear-gradient-44)"/>
        <path id="Path_3029" data-name="Path 3029" d="M-2872.51,734.367a1.7,1.7,0,0,1,.761.847c.309.655.078.958-.211,1a1.353,1.353,0,0,1-1.179-.388C-2873.6,735.4-2873.1,734.141-2872.51,734.367Z" transform="translate(2876.401 -733.759)" fill="url(#linear-gradient-45)"/>
        <path id="Path_3030" data-name="Path 3030" d="M-2873.2,735.12s-.342-.958.508-.97l.2.14a.545.545,0,0,0-.2-.785,1.089,1.089,0,0,0-1.493.662,1.266,1.266,0,0,0,.272,1.464c.362.33.512-.044.512-.044s-.2-.309-.117-.474.266.034.266.034Z" transform="translate(2876.772 -733.403)" fill="url(#linear-gradient-46)"/>
        <path id="Path_3031" data-name="Path 3031" d="M-2872.846,736.208s-.173-.494-.4-.3.187.456.351.54Z" transform="translate(2876.401 -734.339)" fill="url(#linear-gradient-47)"/>
        <path id="Path_3032" data-name="Path 3032" d="M-2873.053,744.469l-.631-.608-.872.369a4.3,4.3,0,0,1-1.365,0l-.5-.134-1.123-.35-.177.5a.3.3,0,0,0,.11.345,1.986,1.986,0,0,0,.284.177c.148.065,3.646-.045,3.646-.045Z" transform="translate(2878.08 -737.335)" fill="url(#linear-gradient-48)"/>
        <path id="Path_3033" data-name="Path 3033" d="M-2875.641,734.6a.194.194,0,0,0-.115-.324,1.319,1.319,0,0,0-1.577,1.068c-.36,1.2-.594,1.8-.833,1.907a.2.2,0,0,0-.011.359.828.828,0,0,0,.521.018C-2875.821,737.22-2876.282,735.25-2875.641,734.6Z" transform="translate(2878.291 -733.725)" fill="url(#linear-gradient-49)"/>
      </g>
      <g id="Group_1976" data-name="Group 1976" transform="translate(4.959 4.1)">
        <path id="Path_3034" data-name="Path 3034" d="M-2874.127,745.172h.009l3.658,0a.164.164,0,0,0,.164-.164.163.163,0,0,0-.164-.163l-3.658,0a.164.164,0,0,0-.164.164A.164.164,0,0,0-2874.127,745.172Z" transform="translate(2874.283 -741.851)" fill="url(#linear-gradient-50)"/>
        <path id="Path_3035" data-name="Path 3035" d="M-2865.866,740.018h-3.047a.58.58,0,0,0-.525.333l-1.408,2.986h3.786a.353.353,0,0,0,.328-.223l1.092-2.764A.243.243,0,0,0-2865.866,740.018Z" transform="translate(2872.977 -740.018)" fill="url(#linear-gradient-51)"/>
        <path id="Path_3036" data-name="Path 3036" d="M-2866.293,742.3c-.066.2-.018.4.109.445s.281-.092.348-.3.018-.4-.109-.445S-2866.227,742.1-2866.293,742.3Z" transform="translate(2871.257 -740.77)" fill="#7d97f4"/>
      </g>
      <g id="Group_1978" data-name="Group 1978" transform="translate(0 7.386)">
        <path id="Path_3037" data-name="Path 3037" d="M-2882.281,745.488a.136.136,0,0,1,.032-.117.155.155,0,0,1,.116-.051h15.264a.177.177,0,0,1,.146.075.154.154,0,0,1,.011.156l-.165.335a.233.233,0,0,1-.21.126h-14.941a.173.173,0,0,1-.172-.133Z" transform="translate(2882.283 -745.319)" fill="#7d97f4"/>
        <g id="Group_1977" data-name="Group 1977" transform="translate(0.198 0.285)">
          <path id="Path_3038" data-name="Path 3038" d="M-2860.6,752.735a.132.132,0,0,0,.053-.011.138.138,0,0,0,.07-.18l-2.809-6.681a.133.133,0,0,0-.176-.072.137.137,0,0,0-.07.18l2.809,6.682A.135.135,0,0,0-2860.6,752.735Z" transform="translate(2874.963 -745.779)" fill="#7d97f4"/>
          <path id="Path_3039" data-name="Path 3039" d="M-2863.985,752.735a.133.133,0,0,0,.123-.083l2.809-6.682a.138.138,0,0,0-.07-.18.133.133,0,0,0-.176.072l-2.809,6.681a.139.139,0,0,0,.07.18A.136.136,0,0,0-2863.985,752.735Z" transform="translate(2875.181 -745.779)" fill="#7d97f4"/>
          <path id="Path_3040" data-name="Path 3040" d="M-2878.448,752.735a.135.135,0,0,0,.053-.011.139.139,0,0,0,.07-.18l-2.809-6.681a.132.132,0,0,0-.176-.072.138.138,0,0,0-.07.18l2.809,6.682A.134.134,0,0,0-2878.448,752.735Z" transform="translate(2881.747 -745.779)" fill="#7d97f4"/>
          <path id="Path_3041" data-name="Path 3041" d="M-2881.83,752.735a.135.135,0,0,0,.124-.083l2.809-6.682a.137.137,0,0,0-.07-.18.133.133,0,0,0-.176.072l-2.809,6.681a.138.138,0,0,0,.07.18A.135.135,0,0,0-2881.83,752.735Z" transform="translate(2881.964 -745.779)" fill="#7d97f4"/>
        </g>
      </g>
    </g>
    <g id="Group_1985" data-name="Group 1985" transform="translate(-7688.082 14363.226)">
      <g id="Group_1983" data-name="Group 1983" transform="translate(0)">
        <g id="Group_1982" data-name="Group 1982">
          <path id="Path_3042" data-name="Path 3042" d="M-2813.269,697.1l-.068-.058-.01-.01c-.019-.017-.058-.054-.115-.1a.042.042,0,0,1-.007-.055.033.033,0,0,1,.048-.008l.063.054a.035.035,0,0,1,.026-.023.035.035,0,0,1,.04.032c.008.048.01.074.01.074Zm-.085-.377-.01,0a.034.034,0,0,1-.041-.029c-.016-.081-.034-.163-.054-.245a.04.04,0,0,1,.025-.047.034.034,0,0,1,.042.028c.019.082.038.166.054.247A.04.04,0,0,1-2813.354,696.724Zm-.259.07a.032.032,0,0,1-.034,0,2.16,2.16,0,0,0-.2-.118.041.041,0,0,1-.016-.052.033.033,0,0,1,.046-.019c.067.036.135.077.2.122a.041.041,0,0,1,.011.053A.03.03,0,0,1-2813.613,696.795Zm-.409-.214a.032.032,0,0,1-.027,0,1.261,1.261,0,0,0-.214-.059.039.039,0,0,1-.028-.045.035.035,0,0,1,.04-.032,1.343,1.343,0,0,1,.225.061.04.04,0,0,1,.021.049A.034.034,0,0,1-2814.022,696.581Zm.553-.346-.006,0a.034.034,0,0,1-.043-.026c-.022-.08-.045-.161-.069-.239a.042.042,0,0,1,.022-.05.034.034,0,0,1,.044.024c.024.08.048.161.069.242A.041.041,0,0,1-2813.469,696.235Zm-1,.268a.026.026,0,0,1-.015.005.909.909,0,0,0-.154.019l-.065.012a.036.036,0,0,1-.04-.033.038.038,0,0,1,.029-.044l.063-.012a1,1,0,0,1,.166-.02.037.037,0,0,1,.036.038A.039.039,0,0,1-2814.467,696.5Zm-.781.407-.061.035a.211.211,0,0,0-.13-.1.039.039,0,0,1-.023-.048.034.034,0,0,1,.043-.026.307.307,0,0,1,.121.069.034.034,0,0,1,.034.024Zm.332-.357a.034.034,0,0,1-.017.005.818.818,0,0,1-.232-.036.041.041,0,0,1-.024-.048.034.034,0,0,1,.043-.026.739.739,0,0,0,.214.033.037.037,0,0,1,.034.039A.038.038,0,0,1-2814.916,696.553Zm1.3-.8,0,0a.034.034,0,0,1-.045-.022c-.027-.079-.056-.157-.086-.233a.041.041,0,0,1,.018-.051.034.034,0,0,1,.046.021c.03.077.058.156.086.236A.04.04,0,0,1-2813.615,695.756Zm-1.748.924,0,0a.034.034,0,0,1-.045-.022c-.031-.092-.058-.172-.08-.239a.04.04,0,0,1,.021-.049.033.033,0,0,1,.044.023c.021.066.048.146.08.237A.04.04,0,0,1-2815.363,696.679Zm-.271.119a.029.029,0,0,1-.022,0c-.067-.012-.141-.027-.224-.05a.04.04,0,0,1-.025-.047.035.035,0,0,1,.042-.028c.081.022.153.037.219.048a.039.039,0,0,1,.029.045A.039.039,0,0,1-2815.634,696.8Zm.294-.393a.031.031,0,0,1-.038,0,.713.713,0,0,1-.129-.159c-.008-.012-.013-.022-.018-.028a.045.045,0,0,1,0-.056.03.03,0,0,1,.048,0l.008.009c.006.008.014.02.023.035a.611.611,0,0,0,.115.143.042.042,0,0,1,.006.055A.04.04,0,0,1-2815.339,696.405Zm1.544-1.114h0a.033.033,0,0,1-.046-.018c-.03-.068-.06-.134-.091-.2l-.012-.025a.041.041,0,0,1,.013-.053h0a.032.032,0,0,1,.047.015l.012.025c.032.065.063.133.093.2A.041.041,0,0,1-2813.795,695.291Zm-2.275,1.384a.031.031,0,0,1-.029,0,2.046,2.046,0,0,1-.211-.1.041.041,0,0,1-.016-.052.034.034,0,0,1,.047-.017,2.027,2.027,0,0,0,.2.1.04.04,0,0,1,.021.05A.041.041,0,0,1-2816.07,696.675Zm-.406-.221a.032.032,0,0,1-.035,0l-.042-.029a1.633,1.633,0,0,1-.147-.118.042.042,0,0,1-.006-.054.032.032,0,0,1,.049-.006,1.525,1.525,0,0,0,.141.112l.041.029a.041.041,0,0,1,.012.053A.044.044,0,0,1-2816.476,696.454Zm2.461-1.6a.033.033,0,0,1-.046-.014c-.04-.072-.082-.142-.125-.208a.042.042,0,0,1,.008-.054.032.032,0,0,1,.048.009c.043.068.085.139.127.212a.042.042,0,0,1-.011.053Zm-2.813,1.288a.032.032,0,0,1-.042-.007,1.84,1.84,0,0,1-.143-.2.042.042,0,0,1,.009-.053.033.033,0,0,1,.048.011,1.582,1.582,0,0,0,.136.193.042.042,0,0,1,0,.055Zm2.549-1.7a.032.032,0,0,1-.042-.009c-.048-.065-.1-.128-.149-.187a.042.042,0,0,1,0-.054.031.031,0,0,1,.048,0c.052.06.1.124.153.19a.041.041,0,0,1,0,.055Zm-2.8,1.281h0a.034.034,0,0,1-.047-.019,1.918,1.918,0,0,1-.085-.24.039.039,0,0,1,.022-.048.034.034,0,0,1,.043.025,1.97,1.97,0,0,0,.082.23A.041.041,0,0,1-2817.08,695.72Zm2.486-1.643a.032.032,0,0,1-.039,0,2.24,2.24,0,0,0-.175-.154.042.042,0,0,1-.008-.054.033.033,0,0,1,.049-.009c.061.049.122.1.179.159a.041.041,0,0,1,0,.055A.031.031,0,0,1-2814.593,694.076Zm-2.624,1.163-.01,0a.035.035,0,0,1-.04-.031,1.142,1.142,0,0,1-.015-.268h0l.024-.105a.034.034,0,0,1,.042-.028.039.039,0,0,1,.025.047l-.026.109a1.212,1.212,0,0,0,.018.232A.041.041,0,0,1-2817.217,695.239Zm2.256-1.456a.032.032,0,0,1-.034,0,1.867,1.867,0,0,0-.2-.111.04.04,0,0,1-.018-.051.033.033,0,0,1,.045-.02,2.2,2.2,0,0,1,.205.115.041.041,0,0,1,.013.053A.032.032,0,0,1-2814.961,693.784Zm-.413-.2a.032.032,0,0,1-.027,0,1.94,1.94,0,0,0-.216-.06.038.038,0,0,1-.027-.045.035.035,0,0,1,.04-.03,1.91,1.91,0,0,1,.223.062.04.04,0,0,1,.023.048A.037.037,0,0,1-2815.374,693.584Zm-1.777,1.053a.031.031,0,0,1-.026,0,.039.039,0,0,1-.024-.047l.057-.245a.035.035,0,0,1,.042-.028.039.039,0,0,1,.025.047l-.056.245A.039.039,0,0,1-2817.151,694.637Zm1.334-1.149a.032.032,0,0,1-.02.005,2.189,2.189,0,0,0-.222-.009.037.037,0,0,1-.036-.038.037.037,0,0,1,.034-.039,2.153,2.153,0,0,1,.229.009.038.038,0,0,1,.031.042A.037.037,0,0,1-2815.817,693.488Zm-1.222.658a.029.029,0,0,1-.025,0,.039.039,0,0,1-.025-.047l.057-.245a.034.034,0,0,1,.042-.028.039.039,0,0,1,.025.047l-.057.245A.037.037,0,0,1-2817.039,694.146Zm.771-.653a.031.031,0,0,1-.013,0c-.072.008-.146.02-.221.035a.035.035,0,0,1-.04-.031.039.039,0,0,1,.028-.045c.076-.015.153-.027.226-.035a.036.036,0,0,1,.038.035A.04.04,0,0,1-2816.268,693.494Zm-.444.089-.008,0c-.064.019-.13.04-.2.063a.033.033,0,0,1-.035.012.04.04,0,0,1-.024-.047l.006-.027.018-.007c.072-.025.144-.049.214-.069a.035.035,0,0,1,.042.028A.039.039,0,0,1-2816.712,693.582Z" transform="translate(2823.554 -690.994)" fill="#7d97f4"/>
          <path id="Path_3043" data-name="Path 3043" d="M-2816.939,694.783s.083,1.118.822,1.138,1.49-.165,1.731.117c0,0-.529-2.111-2.427-1.625Z" transform="translate(2823.422 -691.349)" fill="url(#linear-gradient-52)"/>
          <path id="Path_3044" data-name="Path 3044" d="M-2820.388,695.575s-.267,1.059-.027,1.319a16.908,16.908,0,0,0,2.557,1.074.017.017,0,0,0,.022-.012h0a.308.308,0,0,0-.019-.254,11.525,11.525,0,0,0-1.11-1.734A3.232,3.232,0,0,0-2820.388,695.575Z" transform="translate(2824.782 -691.818)" fill="url(#linear-gradient-53)"/>
          <path id="Path_3045" data-name="Path 3045" d="M-2818.5,697.733a.02.02,0,0,1-.019,0c-.011,0-1.167-.44-1.658-.649a.261.261,0,0,1-.152-.232,4.264,4.264,0,0,1,.031-.8.024.024,0,0,1,.026-.021.025.025,0,0,1,.018.029,4.337,4.337,0,0,0-.031.788.213.213,0,0,0,.124.188c.49.209,1.645.644,1.656.648a.026.026,0,0,1,.014.032A.024.024,0,0,1-2818.5,697.733Z" transform="translate(2824.714 -691.992)" fill="#fff"/>
          <path id="Path_3046" data-name="Path 3046" d="M-2818.929,691.155s.466-.97.8-.97a17.046,17.046,0,0,1,2.5,1.216.021.021,0,0,1,.009.026h0a.263.263,0,0,1-.172.168,9.293,9.293,0,0,1-1.874.384C-2818.107,691.944-2818.929,691.155-2818.929,691.155Z" transform="translate(2824.179 -689.769)" fill="url(#linear-gradient-54)"/>
          <path id="Path_3047" data-name="Path 3047" d="M-2816.278,691.231a.02.02,0,0,1-.021,0c-.011-.006-1.112-.591-1.594-.823a.177.177,0,0,0-.205.04,3.8,3.8,0,0,0-.467.591.02.02,0,0,1-.031.006.026.026,0,0,1-.006-.035,3.846,3.846,0,0,1,.473-.6.218.218,0,0,1,.254-.05c.483.232,1.584.818,1.6.823a.027.027,0,0,1,.011.034A.023.023,0,0,1-2816.278,691.231Z" transform="translate(2824.056 -689.829)" fill="#fff"/>
          <path id="Path_3048" data-name="Path 3048" d="M-2825.242,691.882a5.008,5.008,0,0,0,1.357.919,13.2,13.2,0,0,0,3.429,1.063.184.184,0,0,0,.18-.088,4.059,4.059,0,0,0,.62-1.678.332.332,0,0,0-.112-.3,14.25,14.25,0,0,0-3.082-1.865,4.637,4.637,0,0,0-1.535-.394A5.724,5.724,0,0,0-2825.242,691.882Z" transform="translate(2826.579 -689.523)" fill="url(#linear-gradient-55)"/>
          <path id="Path_3049" data-name="Path 3049" d="M-2825.2,689.529a4.761,4.761,0,0,0-2.132.319.111.111,0,0,0-.052.146,5.873,5.873,0,0,0,1.327,1.879A5.727,5.727,0,0,1-2825.2,689.529Z" transform="translate(2827.398 -689.514)" fill="url(#linear-gradient-56)"/>
          <g id="Group_1980" data-name="Group 1980" transform="translate(2.237 0.779)">
            <path id="Path_3050" data-name="Path 3050" d="M-2822.583,690.836a1.041,1.041,0,0,1,.448,1.308.862.862,0,0,1-1.134.593,1.041,1.041,0,0,1-.448-1.308A.863.863,0,0,1-2822.583,690.836Z" transform="translate(2823.789 -690.771)" fill="#91b3fa"/>
            <path id="Path_3051" data-name="Path 3051" d="M-2822.566,691.1a.83.83,0,0,1,.357,1.042.687.687,0,0,1-.9.472.831.831,0,0,1-.357-1.043A.688.688,0,0,1-2822.566,691.1Z" transform="translate(2823.689 -690.875)" fill="url(#linear-gradient-57)"/>
            <path id="Path_3052" data-name="Path 3052" d="M-2823.055,692.553a.02.02,0,0,1-.025,0,.69.69,0,0,1-.158-.733.669.669,0,0,1,.1-.18.021.021,0,0,1,.031,0,.028.028,0,0,1,0,.036.614.614,0,0,0-.089.166.634.634,0,0,0,.145.674.028.028,0,0,1,0,.035Z" transform="translate(2823.596 -691.097)" fill="url(#linear-gradient-58)"/>
          </g>
          <g id="Group_1981" data-name="Group 1981" transform="translate(4.12 1.843)">
            <path id="Path_3053" data-name="Path 3053" d="M-2819.956,692.53a.689.689,0,0,1,.3.865.57.57,0,0,1-.75.391.687.687,0,0,1-.3-.864A.57.57,0,0,1-2819.956,692.53Z" transform="translate(2820.752 -692.487)" fill="#91b3fa"/>
            <path id="Path_3054" data-name="Path 3054" d="M-2819.944,692.7a.549.549,0,0,1,.236.689.454.454,0,0,1-.6.312.548.548,0,0,1-.236-.689A.454.454,0,0,1-2819.944,692.7Z" transform="translate(2820.687 -692.555)" fill="url(#linear-gradient-59)"/>
            <path id="Path_3055" data-name="Path 3055" d="M-2820.268,693.667a.02.02,0,0,1-.025,0,.466.466,0,0,1-.107-.494.475.475,0,0,1,.065-.121.021.021,0,0,1,.032,0,.027.027,0,0,1,0,.035.405.405,0,0,0-.058.108.409.409,0,0,0,.094.435.028.028,0,0,1,0,.036Z" transform="translate(2820.629 -692.697)" fill="url(#linear-gradient-60)"/>
          </g>
        </g>
      </g>
      <g id="Group_1984" data-name="Group 1984" transform="translate(7.58 6.448)">
        <path id="Path_3056" data-name="Path 3056" d="M-2811.761,718.531a.061.061,0,0,1-.027-.076l.052-.133a.049.049,0,0,1,.068-.03.061.061,0,0,1,.028.076l-.052.133a.056.056,0,0,1-.025.029A.047.047,0,0,1-2811.761,718.531Zm.194-.507a.06.06,0,0,1-.027-.076l.06-.161a.049.049,0,0,1,.067-.031.06.06,0,0,1,.028.076l-.06.161a.053.053,0,0,1-.026.03A.046.046,0,0,1-2811.567,718.024Zm.2-.537a.06.06,0,0,1-.029-.075l.057-.162a.05.05,0,0,1,.067-.033.061.061,0,0,1,.03.075c-.019.054-.038.108-.058.162a.056.056,0,0,1-.025.031A.047.047,0,0,1-2811.37,717.486Zm.188-.541a.059.059,0,0,1-.03-.074l.054-.163a.051.051,0,0,1,.067-.034.06.06,0,0,1,.031.074l-.055.164a.054.054,0,0,1-.025.032A.046.046,0,0,1-2811.182,716.945Zm.178-.545a.06.06,0,0,1-.031-.074c.017-.055.034-.11.051-.164a.051.051,0,0,1,.066-.036.061.061,0,0,1,.032.074c-.018.055-.034.11-.052.165a.055.055,0,0,1-.027.033A.045.045,0,0,1-2811,716.4Zm.168-.549a.06.06,0,0,1-.033-.073c.016-.055.032-.11.048-.166a.051.051,0,0,1,.065-.038.061.061,0,0,1,.034.073l-.048.166a.056.056,0,0,1-.027.034A.048.048,0,0,1-2810.836,715.852Zm.156-.554a.058.058,0,0,1-.034-.072c.015-.055.029-.111.044-.166a.051.051,0,0,1,.064-.04.059.059,0,0,1,.036.072l-.044.167a.056.056,0,0,1-.027.035A.046.046,0,0,1-2810.68,715.3Zm.143-.557a.06.06,0,0,1-.037-.071c.014-.056.027-.112.04-.167a.051.051,0,0,1,.063-.042.06.06,0,0,1,.037.071l-.04.169a.058.058,0,0,1-.027.037A.05.05,0,0,1-2810.537,714.741Zm.129-.562a.058.058,0,0,1-.038-.069c.012-.056.024-.113.035-.169a.053.053,0,0,1,.063-.044.058.058,0,0,1,.038.07c-.011.056-.023.113-.035.169a.058.058,0,0,1-.028.039A.045.045,0,0,1-2810.407,714.18Zm.114-.565a.059.059,0,0,1-.04-.069c.01-.056.021-.113.03-.17a.053.053,0,0,1,.061-.046.058.058,0,0,1,.041.068q-.015.086-.031.171a.056.056,0,0,1-.028.04A.047.047,0,0,1-2810.293,713.615Zm.1-.57a.057.057,0,0,1-.042-.066c.009-.057.017-.115.025-.171a.053.053,0,0,1,.059-.049.057.057,0,0,1,.043.066q-.012.086-.025.173a.056.056,0,0,1-.029.042A.042.042,0,0,1-2810.2,713.045Zm.078-.573a.057.057,0,0,1-.045-.065c.007-.057.013-.115.019-.172a.054.054,0,0,1,.058-.051.057.057,0,0,1,.045.064c-.006.058-.012.116-.019.174a.056.056,0,0,1-.029.045A.047.047,0,0,1-2810.118,712.472Zm.056-.576a.057.057,0,0,1-.048-.063q.007-.087.012-.173a.054.054,0,0,1,.055-.054.056.056,0,0,1,.048.062c0,.058-.007.116-.012.174a.059.059,0,0,1-.029.048A.05.05,0,0,1-2810.062,711.9Zm.032-.579a.056.056,0,0,1-.05-.06c0-.058,0-.115,0-.173a.054.054,0,0,1,.052-.057.056.056,0,0,1,.051.059c0,.058,0,.117,0,.175a.057.057,0,0,1-.029.05A.046.046,0,0,1-2810.03,711.316Zm.006-.58a.055.055,0,0,1-.054-.057c0-.058,0-.115,0-.173a.055.055,0,0,1,.05-.06.055.055,0,0,1,.054.056c0,.058,0,.117,0,.175a.059.059,0,0,1-.029.054A.049.049,0,0,1-2810.023,710.736Zm-.024-.58a.054.054,0,0,1-.056-.053c0-.058-.009-.115-.014-.172a.056.056,0,0,1,.046-.063.054.054,0,0,1,.057.051c0,.058.01.117.014.175a.06.06,0,0,1-.029.057A.046.046,0,0,1-2810.047,710.157Zm-.056-.577a.053.053,0,0,1-.059-.048c-.006-.044-.012-.087-.019-.131a.058.058,0,0,1-.02-.029.059.059,0,0,1,.031-.074l.143-.061a.05.05,0,0,1,.068.032.062.062,0,0,1-.029.076l-.091.04.019.13a.06.06,0,0,1-.029.061A.039.039,0,0,1-2810.1,709.579Zm.381-.432a.062.062,0,0,1,.022-.078l.135-.082a.049.049,0,0,1,.071.021.062.062,0,0,1-.02.079c-.046.029-.092.057-.138.084h0A.05.05,0,0,1-2809.722,709.147Zm.446-.3a.062.062,0,0,1,.012-.081c.042-.034.083-.068.123-.1a.048.048,0,0,1,.073.01.063.063,0,0,1-.009.081c-.041.036-.084.072-.126.106l-.008.005A.049.049,0,0,1-2809.277,708.852Zm-1.207.678q-.076.023-.153.043a.053.053,0,0,1-.062-.043.059.059,0,0,1,.039-.069c.05-.013.1-.027.149-.042a.052.052,0,0,1,.063.041.061.061,0,0,1-.027.068Zm1.61-1.042a.063.063,0,0,1,0-.082l.025-.027c.028-.032.056-.063.082-.1a.048.048,0,0,1,.073,0,.062.062,0,0,1,0,.082c-.027.034-.056.066-.085.1l-.025.028a.049.049,0,0,1-.014.01A.047.047,0,0,1-2808.874,708.488Zm-2.122,1.162c-.052.009-.1.017-.156.024a.054.054,0,0,1-.058-.051.057.057,0,0,1,.046-.064c.051-.007.1-.014.153-.023a.053.053,0,0,1,.059.049.061.061,0,0,1-.029.061A.043.043,0,0,1-2811,709.649Zm.8-.64a.052.052,0,0,1-.063-.043c-.011-.056-.024-.112-.036-.167a.057.057,0,0,1,.036-.071.051.051,0,0,1,.063.041c.013.057.026.113.038.17a.06.06,0,0,1-.028.066Zm-1.322.7-.157.006a.055.055,0,0,1-.053-.057.055.055,0,0,1,.051-.059l.154-.006a.055.055,0,0,1,.054.055.061.061,0,0,1-.029.055A.044.044,0,0,1-2811.518,709.707Zm2.991-1.648a.063.063,0,0,1-.011-.081c.031-.046.06-.093.089-.14a.049.049,0,0,1,.072-.016.063.063,0,0,1,.014.081c-.029.048-.059.1-.091.144a.051.051,0,0,1-.018.018A.048.048,0,0,1-2808.527,708.058Zm-3.514,1.646c-.052,0-.1-.007-.157-.012a.056.056,0,0,1-.047-.063.053.053,0,0,1,.056-.053c.051,0,.1.009.154.011a.056.056,0,0,1,.049.061.059.059,0,0,1-.029.049A.045.045,0,0,1-2812.041,709.7Zm3.8-2.131a.063.063,0,0,1-.022-.079c.024-.05.047-.1.069-.153a.049.049,0,0,1,.069-.027.061.061,0,0,1,.025.077c-.022.053-.047.107-.071.158a.057.057,0,0,1-.023.025A.047.047,0,0,1-2808.245,707.573Zm-2.088.877a.051.051,0,0,1-.066-.037c-.016-.055-.033-.108-.051-.162a.059.059,0,0,1,.031-.074.05.05,0,0,1,.066.034c.018.055.035.11.052.166a.062.062,0,0,1-.027.071Zm-2.229,1.2c-.051-.009-.1-.018-.155-.029a.058.058,0,0,1-.042-.068.053.053,0,0,1,.06-.047c.051.011.1.02.152.029a.059.059,0,0,1,.044.066.059.059,0,0,1-.029.043A.047.047,0,0,1-2812.562,709.645Zm4.532-2.6a.059.059,0,0,1-.031-.074c.017-.054.033-.109.048-.163a.051.051,0,0,1,.065-.038.06.06,0,0,1,.034.073c-.016.056-.032.112-.05.167a.055.055,0,0,1-.026.032A.046.046,0,0,1-2808.03,707.045Zm-5.045,2.483c-.051-.014-.1-.03-.152-.047a.059.059,0,0,1-.036-.072.051.051,0,0,1,.064-.039c.049.016.1.031.148.045a.059.059,0,0,1,.037.071.059.059,0,0,1-.027.038A.046.046,0,0,1-2813.074,709.529Zm5.193-3.039a.059.059,0,0,1-.04-.069c.011-.056.02-.112.03-.169a.053.053,0,0,1,.06-.047.057.057,0,0,1,.042.067c-.009.058-.019.116-.03.174a.056.056,0,0,1-.029.04A.048.048,0,0,1-2807.881,706.49Zm-2.635,1.418a.05.05,0,0,1-.069-.029c-.014-.035-.029-.071-.044-.105l-.021-.05a.062.062,0,0,1,.023-.078h0a.049.049,0,0,1,.069.026l.022.051c.016.036.031.072.045.109a.061.061,0,0,1-.024.076Zm-3.057,1.443c-.05-.021-.1-.044-.146-.068a.06.06,0,0,1-.026-.076.049.049,0,0,1,.068-.03c.046.023.094.045.141.066a.06.06,0,0,1,.03.075.055.055,0,0,1-.026.031A.045.045,0,0,1-2813.574,709.351Zm5.776-3.434a.057.057,0,0,1-.047-.063c0-.057.008-.114.011-.172a.054.054,0,0,1,.054-.055.056.056,0,0,1,.049.061c0,.059-.007.118-.011.176a.06.06,0,0,1-.029.047A.052.052,0,0,1-2807.8,705.917Zm-3.026,1.455c-.027-.049-.054-.1-.083-.145a.063.063,0,0,1,.014-.081.048.048,0,0,1,.072.017q.044.073.085.149a.062.062,0,0,1-.017.079l0,0A.05.05,0,0,1-2810.824,707.372Zm-3.225,1.725c-.046-.03-.091-.061-.135-.093a.063.063,0,0,1-.015-.081.048.048,0,0,1,.072-.016c.042.03.086.061.13.09a.061.061,0,0,1,.019.079.055.055,0,0,1-.021.023A.047.047,0,0,1-2814.049,709.1Zm6.273-3.759a.055.055,0,0,1-.053-.056c0-.058,0-.115-.007-.172a.056.056,0,0,1,.048-.061.054.054,0,0,1,.055.054c0,.059.006.118.007.176a.06.06,0,0,1-.029.054A.054.054,0,0,1-2807.776,705.338Zm-6.7,3.415c-.039-.04-.078-.081-.115-.122a.063.063,0,0,1,0-.082.048.048,0,0,1,.073,0c.035.04.073.079.111.117a.063.063,0,0,1,0,.082.049.049,0,0,1-.017.014A.048.048,0,0,1-2814.478,708.753Zm3.36-1.849q-.048-.067-.1-.132a.062.062,0,0,1,.005-.082.048.048,0,0,1,.073.006c.034.045.068.089.1.135a.063.063,0,0,1-.008.082l-.01.007A.048.048,0,0,1-2811.118,706.9Zm3.3-2.146a.053.053,0,0,1-.059-.049c-.007-.057-.015-.114-.024-.17a.059.059,0,0,1,.042-.067.053.053,0,0,1,.06.047c.009.058.018.116.025.174a.06.06,0,0,1-.029.061A.041.041,0,0,1-2807.814,704.758Zm-7.017,3.551c-.03-.049-.058-.1-.084-.151a.063.063,0,0,1,.02-.079.049.049,0,0,1,.071.022c.025.049.052.1.08.144a.063.063,0,0,1-.014.081l-.007,0A.049.049,0,0,1-2814.83,708.31Zm3.366-1.827q-.056-.059-.113-.115a.062.062,0,0,1-.005-.082.048.048,0,0,1,.073-.006c.04.038.078.078.116.118a.062.062,0,0,1,0,.082.039.039,0,0,1-.015.012A.047.047,0,0,1-2811.464,706.483Zm3.555-2.295a.052.052,0,0,1-.063-.042c-.012-.056-.026-.111-.04-.166a.059.059,0,0,1,.035-.072.051.051,0,0,1,.064.039c.015.056.029.113.042.17a.06.06,0,0,1-.027.067Zm-3.95,1.933c-.042-.033-.084-.065-.127-.1a.063.063,0,0,1-.016-.08.05.05,0,0,1,.072-.018c.043.032.088.065.131.1a.063.063,0,0,1,.013.081.059.059,0,0,1-.02.019A.049.049,0,0,1-2811.859,706.121Zm-3.142,1.694a.051.051,0,0,1-.066-.036c-.017-.056-.032-.114-.045-.172a.058.058,0,0,1,.037-.07.052.052,0,0,1,.063.042c.012.055.027.109.043.162a.061.061,0,0,1-.026.071Zm6.941-4.181a.049.049,0,0,1-.066-.034c-.019-.053-.038-.107-.058-.159a.061.061,0,0,1,.028-.076.05.05,0,0,1,.068.031c.02.054.04.108.058.164a.061.061,0,0,1-.026.073Zm-4.237,2.2c-.046-.025-.093-.048-.139-.071a.061.061,0,0,1-.027-.076.05.05,0,0,1,.068-.031c.049.023.1.048.144.074a.061.061,0,0,1,.024.077.061.061,0,0,1-.024.027A.047.047,0,0,1-2812.3,705.831Zm-2.816,1.419a.055.055,0,0,1-.055-.055c0-.06,0-.121,0-.18a.055.055,0,0,1,.054-.055.057.057,0,0,1,.05.061c0,.056,0,.112,0,.169a.06.06,0,0,1-.029.055A.057.057,0,0,1-2815.114,707.25Zm2.341-1.622c-.049-.015-.1-.03-.148-.042a.058.058,0,0,1-.039-.069.051.051,0,0,1,.062-.044c.051.012.1.027.153.043a.059.059,0,0,1,.036.071.057.057,0,0,1-.027.037A.048.048,0,0,1-2812.772,705.628Zm4.436-2.55c-.024-.051-.048-.1-.074-.151a.061.061,0,0,1,.02-.079.049.049,0,0,1,.07.022c.026.051.052.1.076.154a.062.062,0,0,1-.022.079h0A.049.049,0,0,1-2808.336,703.077Zm-6.734,3.6a.059.059,0,0,1-.035-.073,1.682,1.682,0,0,1,.055-.169.051.051,0,0,1,.068-.03.061.061,0,0,1,.027.076,1.452,1.452,0,0,0-.052.157.054.054,0,0,1-.027.035A.045.045,0,0,1-2815.07,706.674Zm1.8-1.146c-.05,0-.1-.006-.152-.006a.056.056,0,0,1-.052-.058.055.055,0,0,1,.052-.058c.053,0,.106,0,.159.006a.057.057,0,0,1,.048.062.058.058,0,0,1-.029.048A.053.053,0,0,1-2813.271,705.528Zm-1.575.627a.062.062,0,0,1-.007-.081,1.389,1.389,0,0,1,.109-.133.048.048,0,0,1,.073,0,.062.062,0,0,1,0,.082,1.418,1.418,0,0,0-.1.123.05.05,0,0,1-.018.016A.047.047,0,0,1-2814.846,706.155Zm1.07-.6c-.05.009-.1.02-.148.033a.051.051,0,0,1-.062-.043.058.058,0,0,1,.038-.069c.051-.014.1-.025.156-.035a.054.054,0,0,1,.06.048.06.06,0,0,1-.029.061A.034.034,0,0,1-2813.777,705.553Zm-.686.216a.06.06,0,0,1,.018-.079c.045-.029.094-.057.143-.083a.05.05,0,0,1,.069.029.062.062,0,0,1-.025.077,1.485,1.485,0,0,0-.134.077l0,0A.049.049,0,0,1-2814.463,705.768Zm5.863-3.184c-.028-.048-.057-.095-.087-.141a.063.063,0,0,1,.012-.081.049.049,0,0,1,.073.014c.03.048.059.1.089.144a.062.062,0,0,1-.014.081l-.006,0A.049.049,0,0,1-2808.6,702.585Zm-.305-.461c-.032-.045-.066-.089-.1-.132a.063.063,0,0,1,0-.082.048.048,0,0,1,.073.006c.035.045.068.089.1.134a.062.062,0,0,1-.007.082l-.011.008A.048.048,0,0,1-2808.9,702.124Zm-.343-.427-.11-.121a.062.062,0,0,1,0-.082.048.048,0,0,1,.073,0c.038.04.075.082.112.123a.063.063,0,0,1,0,.082.054.054,0,0,1-.014.011A.047.047,0,0,1-2809.248,701.7Zm-.377-.391-.118-.11a.062.062,0,0,1-.008-.081.048.048,0,0,1,.073-.009c.041.037.081.074.12.112a.062.062,0,0,1,.006.082.052.052,0,0,1-.017.014A.048.048,0,0,1-2809.625,701.306Zm-.4-.355-.126-.1a.063.063,0,0,1-.014-.081.048.048,0,0,1,.072-.015c.043.033.086.067.128.1a.062.062,0,0,1,.012.081.056.056,0,0,1-.019.019A.049.049,0,0,1-2810.03,700.951Zm-.428-.32-.133-.089a.063.063,0,0,1-.018-.08.049.049,0,0,1,.071-.02c.045.03.09.06.134.09a.062.062,0,0,1,.018.08.061.061,0,0,1-.022.022A.047.047,0,0,1-2810.458,700.631Zm-.448-.285-.137-.079a.061.061,0,0,1-.024-.078.049.049,0,0,1,.07-.025c.047.026.094.052.14.079a.062.062,0,0,1,.021.079.053.053,0,0,1-.023.025A.047.047,0,0,1-2810.906,700.347Zm-.464-.251-.141-.068a.061.061,0,0,1-.028-.076.05.05,0,0,1,.068-.031l.143.069a.061.061,0,0,1,.027.077.056.056,0,0,1-.025.029A.046.046,0,0,1-2811.37,700.1Z" transform="translate(2815.17 -699.916)" fill="#7d97f4"/>
      </g>
    </g>
    <g id="Group_1988" data-name="Group 1988" transform="translate(-7732.909 14368.347)">
      <g id="Group_1986" data-name="Group 1986" transform="translate(0 1.406)">
        <path id="Path_3057" data-name="Path 3057" d="M-2895.8,707.919l-.025,0-.851-.1a.206.206,0,0,1-.175-.16l-.133-.622a3.267,3.267,0,0,1-.781-.441l-.6.208a.2.2,0,0,1-.227-.067l-.529-.676a.2.2,0,0,1-.011-.236l.346-.535a3.266,3.266,0,0,1-.242-.864l-.572-.278a.2.2,0,0,1-.113-.208l.1-.852a.2.2,0,0,1,.16-.174l.622-.134a3.265,3.265,0,0,1,.441-.782l-.208-.6a.205.205,0,0,1,.067-.227l.676-.529a.2.2,0,0,1,.236-.011l.535.346a3.261,3.261,0,0,1,.864-.242l.278-.572a.2.2,0,0,1,.208-.113l.852.1a.2.2,0,0,1,.174.159l.134.622a3.269,3.269,0,0,1,.781.441l.6-.208a.2.2,0,0,1,.227.067l.53.676a.2.2,0,0,1,.01.236l-.346.535a3.266,3.266,0,0,1,.242.864l.572.278a.2.2,0,0,1,.113.208l-.1.852a.2.2,0,0,1-.159.175l-.622.133a3.264,3.264,0,0,1-.441.782l.208.6a.205.205,0,0,1-.067.227l-.676.529a.2.2,0,0,1-.236.011l-.535-.346a3.256,3.256,0,0,1-.864.242l-.278.572A.2.2,0,0,1-2895.8,707.919Zm-.781-.386.73.089.321-.66.08-.009a2.978,2.978,0,0,0,.927-.259l.073-.034.616.4.579-.454-.24-.694.05-.062a2.99,2.99,0,0,0,.474-.839l.027-.076.717-.154.089-.73-.659-.32-.009-.08a2.971,2.971,0,0,0-.259-.927l-.034-.073.4-.616-.454-.579-.694.24-.062-.05a2.961,2.961,0,0,0-.838-.474l-.076-.027-.154-.717-.73-.089-.321.66-.079.009a2.978,2.978,0,0,0-.927.259l-.073.034-.617-.4-.579.453.24.694-.05.063a2.955,2.955,0,0,0-.474.838l-.027.076-.717.154-.089.73.66.321.009.079a2.976,2.976,0,0,0,.259.927l.034.073-.4.617.454.578.694-.239.062.05a2.975,2.975,0,0,0,.839.474l.075.027Zm-2.744-4.415h0Zm-.144-.018h0Zm3.709,3.086a2.22,2.22,0,0,1-.271-.017,2.214,2.214,0,0,1-1.093-.449.145.145,0,0,1-.025-.2.145.145,0,0,1,.2-.025,1.924,1.924,0,0,0,.949.39,1.915,1.915,0,0,0,1.42-.4,1.915,1.915,0,0,0,.724-1.284,1.911,1.911,0,0,0-.4-1.42,1.913,1.913,0,0,0-1.285-.724,1.914,1.914,0,0,0-1.42.4,1.911,1.911,0,0,0-.724,1.284,1.956,1.956,0,0,0-.006.41.144.144,0,0,1-.131.157.144.144,0,0,1-.157-.131,2.21,2.21,0,0,1,.007-.472,2.2,2.2,0,0,1,.833-1.477,2.2,2.2,0,0,1,1.634-.456,2.2,2.2,0,0,1,1.478.833,2.2,2.2,0,0,1,.456,1.634,2.2,2.2,0,0,1-.833,1.477A2.2,2.2,0,0,1-2895.755,706.187Z" transform="translate(2899.713 -700.043)" fill="#7d97f4"/>
        <path id="Path_3058" data-name="Path 3058" d="M-2893.917,706.747a.912.912,0,0,1-.325-.061.9.9,0,0,1-.5-.479.9.9,0,0,1-.018-.694h0a.909.909,0,0,1,1.173-.52.9.9,0,0,1,.5.479.9.9,0,0,1,.017.694A.91.91,0,0,1-2893.917,706.747Zm-.575-1.129a.616.616,0,0,0,.012.472.615.615,0,0,0,.342.326.619.619,0,0,0,.8-.354.617.617,0,0,0-.354-.8.618.618,0,0,0-.8.353Z" transform="translate(2897.854 -701.901)" fill="#7d97f4"/>
      </g>
      <g id="Group_1987" data-name="Group 1987" transform="translate(7.715 0)">
        <path id="Path_3059" data-name="Path 3059" d="M-2884.938,701.525a.138.138,0,0,1-.1-.048l-.184-.218a1.636,1.636,0,0,1-.4-.009l-.193.209a.137.137,0,0,1-.156.032l-.378-.167a.137.137,0,0,1-.081-.136l.024-.285a1.609,1.609,0,0,1-.276-.289l-.285.011a.137.137,0,0,1-.133-.087l-.149-.385a.137.137,0,0,1,.039-.154l.218-.185a1.629,1.629,0,0,1,.009-.4l-.209-.194a.137.137,0,0,1-.032-.156l.167-.378a.138.138,0,0,1,.137-.081l.284.024a1.593,1.593,0,0,1,.29-.277l-.011-.285a.137.137,0,0,1,.087-.133l.385-.149a.137.137,0,0,1,.154.039l.184.218a1.634,1.634,0,0,1,.4.009l.194-.209a.138.138,0,0,1,.156-.032l.378.167a.136.136,0,0,1,.081.136l-.023.285a1.605,1.605,0,0,1,.276.29l.285-.011a.137.137,0,0,1,.133.087l.149.385a.137.137,0,0,1-.04.154l-.218.185a1.6,1.6,0,0,1-.009.4l.209.194a.136.136,0,0,1,.032.156l-.167.378a.136.136,0,0,1-.136.081l-.285-.023a1.6,1.6,0,0,1-.29.276l.011.286a.137.137,0,0,1-.087.133l-.385.149A.139.139,0,0,1-2884.938,701.525Zm-1.043-.214Zm.844-.284.224.265.279-.108-.014-.347.049-.033a1.382,1.382,0,0,0,.326-.311l.036-.048.345.029.12-.273-.254-.236.011-.059a1.382,1.382,0,0,0,.01-.451l-.008-.06.265-.224-.108-.278-.347.013-.034-.05a1.376,1.376,0,0,0-.311-.325l-.048-.037.029-.345-.273-.12-.236.254-.059-.011a1.391,1.391,0,0,0-.45-.01l-.06.008-.224-.265-.278.108.014.346-.05.034a1.378,1.378,0,0,0-.326.311l-.036.048-.345-.029-.12.273.254.236-.011.059a1.365,1.365,0,0,0-.01.45l.008.06-.265.224.108.278.347-.013.034.05a1.384,1.384,0,0,0,.311.325l.048.037-.029.345.272.12.236-.254.059.011a1.409,1.409,0,0,0,.45.01Zm1.433-1.892h0Zm-3.243-.314h0Zm.081-.048Zm2.352-.6h0Zm-.377-.166Zm-.923-.021Zm-.09-.023Zm.522,2.789a1.105,1.105,0,0,1-.445-.094,1.109,1.109,0,0,1-.457-.373.109.109,0,0,1,.026-.151.109.109,0,0,1,.152.026.891.891,0,0,0,.366.3.884.884,0,0,0,.679.016.885.885,0,0,0,.491-.469.889.889,0,0,0-.454-1.17.884.884,0,0,0-.679-.016.885.885,0,0,0-.491.469.921.921,0,0,0-.058.18.108.108,0,0,1-.128.084.108.108,0,0,1-.084-.128,1.109,1.109,0,0,1,.071-.224,1.1,1.1,0,0,1,.612-.585,1.1,1.1,0,0,1,.845.019,1.107,1.107,0,0,1,.566,1.457,1.1,1.1,0,0,1-.611.585A1.11,1.11,0,0,1-2885.384,700.753Z" transform="translate(2887.267 -697.775)" fill="#7d97f4"/>
      </g>
    </g>
    <circle id="Ellipse_92" data-name="Ellipse 92" cx="0.835" cy="0.835" r="0.835" transform="translate(-7694.452 14386.166)" fill="url(#linear-gradient)"/>
    <circle id="Ellipse_93" data-name="Ellipse 93" cx="0.835" cy="0.835" r="0.835" transform="translate(-7709.69 14386.166)" fill="url(#linear-gradient-62)"/>
    <circle id="Ellipse_94" data-name="Ellipse 94" cx="0.835" cy="0.835" r="0.835" transform="translate(-7709.69 14371.155)" fill="url(#linear-gradient-62)"/>
    <circle id="Ellipse_95" data-name="Ellipse 95" cx="0.835" cy="0.835" r="0.835" transform="translate(-7694.452 14371.155)" fill="url(#linear-gradient)"/>
    <path id="Path_3060" data-name="Path 3060" d="M-2845.735,718.845h-.724a.109.109,0,0,1-.109-.109.109.109,0,0,1,.109-.108h.724a.108.108,0,0,1,.109.108A.109.109,0,0,1-2845.735,718.845Zm-1.449,0h-.725a.109.109,0,0,1-.109-.109.109.109,0,0,1,.109-.108h.725a.108.108,0,0,1,.108.108A.109.109,0,0,1-2847.184,718.845Zm-1.45,0h-.725a.109.109,0,0,1-.108-.109.108.108,0,0,1,.108-.108h.725a.109.109,0,0,1,.109.108A.109.109,0,0,1-2848.634,718.845Zm-1.449,0h-.725a.109.109,0,0,1-.108-.109.108.108,0,0,1,.108-.108h.725a.109.109,0,0,1,.109.108A.109.109,0,0,1-2850.084,718.845Zm-1.449,0h-.725a.109.109,0,0,1-.109-.109.109.109,0,0,1,.109-.108h.725a.108.108,0,0,1,.109.108A.109.109,0,0,1-2851.533,718.845Zm-1.449,0h-.725a.109.109,0,0,1-.109-.109.109.109,0,0,1,.109-.108h.725a.108.108,0,0,1,.108.108A.109.109,0,0,1-2852.982,718.845Zm-1.45,0h-.725a.109.109,0,0,1-.109-.109.108.108,0,0,1,.109-.108h.725a.109.109,0,0,1,.109.108A.109.109,0,0,1-2854.432,718.845Zm-1.449,0h-.725a.109.109,0,0,1-.108-.109.108.108,0,0,1,.108-.108h.725a.109.109,0,0,1,.109.108A.109.109,0,0,1-2855.882,718.845Zm-1.449,0h-.725a.109.109,0,0,1-.109-.109.109.109,0,0,1,.109-.108h.725a.108.108,0,0,1,.108.108A.109.109,0,0,1-2857.331,718.845Zm-1.449,0h-.725a.109.109,0,0,1-.109-.109.109.109,0,0,1,.109-.108h.725a.108.108,0,0,1,.108.108A.109.109,0,0,1-2858.78,718.845Zm-1.45,0h-.724a.109.109,0,0,1-.109-.109.108.108,0,0,1,.109-.108h.724a.109.109,0,0,1,.109.108A.109.109,0,0,1-2860.23,718.845Zm-.76-.689a.109.109,0,0,1-.108-.108v-.725a.109.109,0,0,1,.108-.108.108.108,0,0,1,.108.108v.725A.108.108,0,0,1-2860.991,718.156Zm0-1.449a.109.109,0,0,1-.108-.109v-.725a.108.108,0,0,1,.108-.108.108.108,0,0,1,.108.108v.725A.109.109,0,0,1-2860.991,716.707Zm0-1.45a.108.108,0,0,1-.108-.109v-.725a.108.108,0,0,1,.108-.109.108.108,0,0,1,.108.109v.725A.108.108,0,0,1-2860.991,715.257Zm0-1.449a.108.108,0,0,1-.108-.109v-.725a.109.109,0,0,1,.108-.109.109.109,0,0,1,.108.109v.725A.108.108,0,0,1-2860.991,713.807Zm0-1.449a.109.109,0,0,1-.108-.108v-.725a.109.109,0,0,1,.108-.108.108.108,0,0,1,.108.108v.725A.108.108,0,0,1-2860.991,712.358Zm0-1.449a.109.109,0,0,1-.108-.109v-.725a.108.108,0,0,1,.108-.109.108.108,0,0,1,.108.109v.725A.109.109,0,0,1-2860.991,710.909Zm0-1.45a.108.108,0,0,1-.108-.108v-.725a.108.108,0,0,1,.108-.108.108.108,0,0,1,.108.108v.725A.108.108,0,0,1-2860.991,709.459Zm0-1.449a.108.108,0,0,1-.108-.108v-.725a.109.109,0,0,1,.108-.109.109.109,0,0,1,.108.109v.725A.108.108,0,0,1-2860.991,708.01Zm0-1.449a.109.109,0,0,1-.108-.108v-.725a.109.109,0,0,1,.108-.109.108.108,0,0,1,.108.109v.725A.108.108,0,0,1-2860.991,706.56Zm0-1.449a.109.109,0,0,1-.108-.109v-.725a.108.108,0,0,1,.108-.108.108.108,0,0,1,.108.108V705A.109.109,0,0,1-2860.991,705.111Zm15.256-1.268h-.58a.109.109,0,0,1-.109-.109.109.109,0,0,1,.109-.109h.58a.108.108,0,0,1,.109.109A.109.109,0,0,1-2845.735,703.843Zm-1.3,0h-.725a.109.109,0,0,1-.108-.109.108.108,0,0,1,.108-.109h.725a.109.109,0,0,1,.109.109A.109.109,0,0,1-2847.04,703.843Zm-1.45,0h-.724a.109.109,0,0,1-.109-.109.108.108,0,0,1,.109-.109h.724a.109.109,0,0,1,.109.109A.109.109,0,0,1-2848.49,703.843Zm-1.449,0h-.725a.109.109,0,0,1-.109-.109.108.108,0,0,1,.109-.109h.725a.108.108,0,0,1,.108.109A.109.109,0,0,1-2849.938,703.843Zm-1.449,0h-.725a.109.109,0,0,1-.109-.109.109.109,0,0,1,.109-.109h.725a.108.108,0,0,1,.109.109A.109.109,0,0,1-2851.388,703.843Zm-1.449,0h-.725a.109.109,0,0,1-.108-.109.109.109,0,0,1,.108-.109h.725a.109.109,0,0,1,.108.109A.109.109,0,0,1-2852.837,703.843Zm-1.45,0h-.725a.109.109,0,0,1-.108-.109.108.108,0,0,1,.108-.109h.725a.109.109,0,0,1,.109.109A.109.109,0,0,1-2854.287,703.843Zm-1.449,0h-.725a.109.109,0,0,1-.108-.109.108.108,0,0,1,.108-.109h.725a.108.108,0,0,1,.109.109A.109.109,0,0,1-2855.737,703.843Zm-1.449,0h-.725a.109.109,0,0,1-.109-.109.109.109,0,0,1,.109-.109h.725a.108.108,0,0,1,.108.109A.109.109,0,0,1-2857.186,703.843Zm-1.45,0h-.725a.109.109,0,0,1-.109-.109.109.109,0,0,1,.109-.109h.725a.109.109,0,0,1,.109.109A.109.109,0,0,1-2858.635,703.843Zm-1.45,0h-.725a.109.109,0,0,1-.108-.109.108.108,0,0,1,.108-.109h.725a.109.109,0,0,1,.109.109A.109.109,0,0,1-2860.085,703.843Z" transform="translate(-4847.873 13668.348)" fill="#fff"/>
    <g id="Group_1999" data-name="Group 1999" transform="translate(-7693.617 14387.108)">
      <g id="Group_1994" data-name="Group 1994" transform="translate(11.977 1.48)">
        <g id="Group_1989" data-name="Group 1989" transform="translate(2.316 14.338)">
          <path id="Path_3061" data-name="Path 3061" d="M-2813.2,755.11c.323.076.883.206,1.328.291a1.3,1.3,0,0,0,.52.025l0,.029a.093.093,0,0,1-.1.074,15.788,15.788,0,0,1-1.757-.257.066.066,0,0,1-.039-.107A.564.564,0,0,1-2813.2,755.11Z" transform="translate(2813.271 -754.148)" fill="url(#linear-gradient-65)"/>
          <path id="Path_3062" data-name="Path 3062" d="M-2811.833,755.118c-.445-.086-1-.215-1.328-.291a3.408,3.408,0,0,1,1.439-.462l.288.043a1.215,1.215,0,0,1,.121.736A1.3,1.3,0,0,1-2811.833,755.118Z" transform="translate(2813.229 -753.864)" fill="url(#linear-gradient-66)"/>
          <path id="Path_3063" data-name="Path 3063" d="M-2810.515,753.637l-.105.53a.124.124,0,0,1-.121.1.481.481,0,0,1-.214-.05.146.146,0,0,1-.081-.125l-.017-.533Z" transform="translate(2812.428 -753.558)" fill="url(#linear-gradient-67)"/>
        </g>
        <g id="Group_1991" data-name="Group 1991" transform="translate(7.059 14.401)">
          <g id="Group_1990" data-name="Group 1990" transform="translate(0.029 0.464)">
            <path id="Path_3064" data-name="Path 3064" d="M-2804.738,756.459a.261.261,0,0,0,.259-.138v0a.185.185,0,0,1-.155.192.821.821,0,0,1-.352,0,.346.346,0,0,1-.241-.157h0A.873.873,0,0,0-2804.738,756.459Z" transform="translate(2805.441 -755.136)" fill="url(#linear-gradient-68)"/>
            <path id="Path_3065" data-name="Path 3065" d="M-2805.357,754.41l.238.035c.363.046.478.843.509,1.149a.261.261,0,0,1-.259.138.874.874,0,0,1-.489-.1,2.3,2.3,0,0,1-.213-.9A.3.3,0,0,1-2805.357,754.41Z" transform="translate(2805.572 -754.41)" fill="url(#linear-gradient-69)"/>
          </g>
          <path id="Path_3066" data-name="Path 3066" d="M-2805.094,753.661l.054.544a.145.145,0,0,1-.1.151.511.511,0,0,1-.283.026.12.12,0,0,1-.085-.094l-.113-.58Z" transform="translate(2805.619 -753.661)" fill="url(#linear-gradient-70)"/>
        </g>
        <path id="Path_3067" data-name="Path 3067" d="M-2807.107,749.11a1.621,1.621,0,0,1-.723.062c-1.243-4.9-1.934-5.671-1.934-5.671a37.893,37.893,0,0,1-.779,5.606,1.163,1.163,0,0,1-.727-.107,30.071,30.071,0,0,0,.094-7.446,3.719,3.719,0,0,0,2.313-.326C-2808.037,743.135-2807.107,749.11-2807.107,749.11Z" transform="translate(2814.826 -734.534)" fill="url(#linear-gradient-71)"/>
        <path id="Path_3068" data-name="Path 3068" d="M-2809,732.471a22.1,22.1,0,0,1-.552,4.44,2.008,2.008,0,0,0,.2.989.084.084,0,0,1-.051.112,5.863,5.863,0,0,1-2.3.288.151.151,0,0,1-.133-.134,29.41,29.41,0,0,0-.976-4.988C-2811.584,731.738-2809,732.471-2809,732.471Z" transform="translate(2815.412 -731.134)" fill="url(#linear-gradient-72)"/>
        <path id="Path_3069" data-name="Path 3069" d="M-2809.452,744.153a.069.069,0,0,0,.033,0,.063.063,0,0,0,.033-.082,1.959,1.959,0,0,0-.665-.774.063.063,0,0,0-.087.017.062.062,0,0,0,.017.086,1.864,1.864,0,0,1,.62.72A.062.062,0,0,0-2809.452,744.153Z" transform="translate(2814.4 -735.314)" fill="url(#linear-gradient-73)"/>
        <g id="Group_1992" data-name="Group 1992" transform="translate(5.917 1.337)">
          <path id="Path_3070" data-name="Path 3070" d="M-2805.748,738.517a4.269,4.269,0,0,1-1.054,1.742l-.156-.17a5.531,5.531,0,0,0,.35-1.763A2.155,2.155,0,0,1-2805.748,738.517Z" transform="translate(2807.27 -734.767)" fill="url(#linear-gradient-74)"/>
          <path id="Path_3071" data-name="Path 3071" d="M-2807.462,734.06l.5-1.473a4.161,4.161,0,0,1,1.025,3.75,2.155,2.155,0,0,0-.86-.191A3.006,3.006,0,0,0-2807.462,734.06Z" transform="translate(2807.462 -732.586)" fill="url(#linear-gradient-75)"/>
        </g>
        <g id="Group_1993" data-name="Group 1993" transform="translate(0 2.044)">
          <path id="Path_3072" data-name="Path 3072" d="M-2813.405,733.726l.484,1.631a1.588,1.588,0,0,1-1.361,1.3,3.264,3.264,0,0,0-.091-1.029A3.316,3.316,0,0,0-2813.405,733.726Z" transform="translate(2816.006 -733.726)" fill="url(#linear-gradient-76)"/>
          <path id="Path_3073" data-name="Path 3073" d="M-2815.374,736.8a3.264,3.264,0,0,1,.091,1.029c-1.5.343-1.724-.784-1.724-.784l.27-.007A1.51,1.51,0,0,0-2815.374,736.8Z" transform="translate(2817.007 -734.895)" fill="url(#linear-gradient-77)"/>
        </g>
        <path id="Path_3074" data-name="Path 3074" d="M-2811.31,730.684l.157,1.309a.247.247,0,0,0,.3.211,4.934,4.934,0,0,0,.526-.152.333.333,0,0,0,.186-.457l-.555-1.165Z" transform="translate(2814.842 -730.429)" fill="url(#linear-gradient-78)"/>
      </g>
      <g id="Group_1995" data-name="Group 1995" transform="translate(14.569 0)">
        <path id="Path_3075" data-name="Path 3075" d="M-2812.292,729.029c-.006.021.075,1.477.075,1.477l.83-.063.13-1.392S-2812.186,728.675-2812.292,729.029Z" transform="translate(2812.623 -728.359)" fill="url(#linear-gradient-79)"/>
        <path id="Path_3076" data-name="Path 3076" d="M-2811.687,729.014l-.01.738a.1.1,0,0,1,0,.028c-.016.056-.087.242-.274.159a.923.923,0,0,0-.443-.125.1.1,0,0,0-.087.107,4.514,4.514,0,0,0,.088.686.1.1,0,0,0,.115.078,3.3,3.3,0,0,0,.751-.185.1.1,0,0,0,.063-.084c.019-.184.079-.743.12-.9s.231-.2.314-.224a.1.1,0,0,0,.064-.048.267.267,0,0,0-.121-.412.1.1,0,0,1-.045-.142.268.268,0,0,0-.095-.388.377.377,0,0,0-.461.042.1.1,0,0,1-.133,0,.081.081,0,0,0-.093-.011.1.1,0,0,1-.135-.064.307.307,0,0,0-.328-.229c-.369.009-.469.4-.408.65s.46.216.671.126a.44.44,0,0,1,.414.117A.1.1,0,0,1-2811.687,729.014Z" transform="translate(2812.826 -728.041)" fill="url(#linear-gradient-80)"/>
        <path id="Path_3077" data-name="Path 3077" d="M-2810.5,730.527s-.087-.437.08-.516.385.007.291.3C-2810.244,730.675-2810.5,730.527-2810.5,730.527Z" transform="translate(2811.949 -728.779)" fill="url(#linear-gradient-81)"/>
      </g>
      <path id="Path_3078" data-name="Path 3078" d="M-2817.2,737.119c-.08.046-.308-.107-.446-.211a.175.175,0,0,1-.054-.216c.053-.109.135-.247.212-.255C-2817.362,736.424-2816.872,736.932-2817.2,737.119Z" transform="translate(2829.254 -731.232)" fill="url(#linear-gradient-82)"/>
      <g id="Group_1998" data-name="Group 1998" transform="translate(0 0.127)">
        <g id="Group_1997" data-name="Group 1997">
          <path id="Path_3079" data-name="Path 3079" d="M-2809.954,740.215l-17.771-9.433-1.4,2.61,17.737,9.618a.884.884,0,0,0,1.112-.226,3.758,3.758,0,0,0,.713-1.78A.757.757,0,0,0-2809.954,740.215Z" transform="translate(2833.59 -729.21)" fill="url(#linear-gradient-83)"/>
          <g id="Group_1996" data-name="Group 1996">
            <path id="Path_3080" data-name="Path 3080" d="M-2836.161,728.251l2.544.7a2.3,2.3,0,0,1-.713,1.271l-1.954-1.746A.132.132,0,0,1-2836.161,728.251Z" transform="translate(2836.328 -728.246)" fill="url(#linear-gradient-84)"/>
            <path id="Path_3081" data-name="Path 3081" d="M-2829.239,730.25a3.65,3.65,0,0,1-1.4,2.61l-2.469-2.206a2.307,2.307,0,0,0,.714-1.271Z" transform="translate(2835.103 -728.677)" fill="url(#linear-gradient-85)"/>
          </g>
        </g>
        <path id="Path_3082" data-name="Path 3082" d="M-2809.234,741.73a.056.056,0,0,0,.058-.029.056.056,0,0,0-.023-.075l-17.008-8.985a.056.056,0,0,0-.075.023.055.055,0,0,0,.023.076l17.008,8.985A.059.059,0,0,0-2809.234,741.73Z" transform="translate(2832.513 -729.914)" fill="url(#linear-gradient-86)"/>
        <path id="Path_3083" data-name="Path 3083" d="M-2809.99,743.4a.057.057,0,0,0,.057-.029.057.057,0,0,0-.023-.076l-17.008-8.984a.055.055,0,0,0-.075.023.056.056,0,0,0,.023.075l17.008,8.985A.06.06,0,0,0-2809.99,743.4Z" transform="translate(2832.8 -730.549)" fill="url(#linear-gradient-87)"/>
      </g>
      <path id="Path_3084" data-name="Path 3084" d="M-2807.586,741.031l-.819-.19-.407.278s.068.13.343.1a3.825,3.825,0,0,1,.642.009s.342.219.392-.089Z" transform="translate(2825.869 -732.906)" fill="url(#linear-gradient-88)"/>
    </g>
  </g>
</svg>
