<svg xmlns="http://www.w3.org/2000/svg" width="12.433" height="11.438" viewBox="0 0 12.433 11.438">
  <g id="comment" transform="translate(0 1.332)">
    <path id="Path_791" data-name="Path 791" d="M10.724-1.332H1.71A1.711,1.711,0,0,0,0,.377V5.894A1.711,1.711,0,0,0,1.7,7.6v2.5L5.3,7.6h5.423a1.711,1.711,0,0,0,1.709-1.709V.377a1.711,1.711,0,0,0-1.709-1.709Zm.981,7.226a.982.982,0,0,1-.981.981H5.073L2.432,8.712V6.875H1.71a.982.982,0,0,1-.981-.981V.377A.982.982,0,0,1,1.71-.6h9.014a.982.982,0,0,1,.981.981Zm0,0"/>
    <path id="Path_792" data-name="Path 792" d="M171.293,131.172h5.778v.728h-5.778Zm0,0" transform="translate(-167.965 -129.93)"/>
    <path id="Path_793" data-name="Path 793" d="M171.293,211.172h5.778v.728h-5.778Zm0,0" transform="translate(-167.965 -208.376)"/>
    <path id="Path_794" data-name="Path 794" d="M171.293,291.172h5.778v.728h-5.778Zm0,0" transform="translate(-167.965 -286.822)"/>
  </g>
</svg>
