<svg xmlns="http://www.w3.org/2000/svg" width="28.22" height="17.851" viewBox="0 0 28.22 17.851">
  <g id="Out_for_Delivery_" data-name="Out for Delivery " transform="translate(0 -94.062)">
    <g id="Group_2295" data-name="Group 2295" transform="translate(0 94.062)">
      <g id="Group_2294" data-name="Group 2294">
        <path id="Path_3296" data-name="Path 3296" d="M26.244,101.629l-.731-2.923a.442.442,0,0,0,.35-.432V97.8a1.858,1.858,0,0,0-1.856-1.856H20.679v-.972a.914.914,0,0,0-.913-.913H2.8a.914.914,0,0,0-.913.913v8.012a.442.442,0,0,0,.884,0V94.975a.029.029,0,0,1,.029-.029H19.765a.029.029,0,0,1,.029.029v8.012a.442.442,0,1,0,.884,0v-.5h5.215a1.446,1.446,0,0,1,1.373,1H25.892a.442.442,0,0,0-.442.442v.943a1.386,1.386,0,0,0,1.384,1.384h.5V108.2H26.18a2.8,2.8,0,0,0-5.289,0h-.213v-3.329a.442.442,0,0,0-.884,0V108.2H10.627a2.8,2.8,0,0,0-5.289,0H2.8a.029.029,0,0,1-.029-.029V107.2H4.684a.442.442,0,1,0,0-.884H.442a.442.442,0,1,0,0,.884H1.885v.972a.914.914,0,0,0,.913.913H5.185c0,.01,0,.02,0,.029a2.8,2.8,0,1,0,5.6,0c0-.01,0-.02,0-.029h9.958c0,.01,0,.02,0,.029a2.8,2.8,0,1,0,5.6,0c0-.01,0-.02,0-.029h1.444a.442.442,0,0,0,.442-.442V103.93A2.331,2.331,0,0,0,26.244,101.629Zm-5.565-4.8h3.329a.973.973,0,0,1,.972.972v.029h-4.3Zm0,4.772V98.716H24.6l.722,2.887Zm-12.7,9.426A1.915,1.915,0,1,1,9.9,109.114,1.917,1.917,0,0,1,7.983,111.029Zm15.553,0a1.915,1.915,0,1,1,1.915-1.915A1.917,1.917,0,0,1,23.536,111.029Zm3.8-5.656h-.5a.5.5,0,0,1-.5-.5v-.5h1v1Z" transform="translate(0 -94.062)" fill="#fff"/>
      </g>
    </g>
    <g id="Group_2297" data-name="Group 2297" transform="translate(7.07 108.201)">
      <g id="Group_2296" data-name="Group 2296" transform="translate(0 0)">
        <path id="Path_3297" data-name="Path 3297" d="M129.18,350.6a.913.913,0,1,0,.913.913A.914.914,0,0,0,129.18,350.6Z" transform="translate(-128.267 -350.597)" fill="#fff"/>
      </g>
    </g>
    <g id="Group_2299" data-name="Group 2299" transform="translate(22.623 108.201)">
      <g id="Group_2298" data-name="Group 2298" transform="translate(0 0)">
        <path id="Path_3298" data-name="Path 3298" d="M411.368,350.6a.913.913,0,1,0,.913.913A.914.914,0,0,0,411.368,350.6Z" transform="translate(-410.455 -350.597)" fill="#fff"/>
      </g>
    </g>
    <g id="Group_2301" data-name="Group 2301" transform="translate(11.311 106.316)">
      <g id="Group_2300" data-name="Group 2300" transform="translate(0 0)">
        <path id="Path_3299" data-name="Path 3299" d="M212.267,316.393h-6.6a.442.442,0,1,0,0,.884h6.6a.442.442,0,1,0,0-.884Z" transform="translate(-205.227 -316.393)" fill="#fff"/>
      </g>
    </g>
    <g id="Group_2303" data-name="Group 2303" transform="translate(0.943 104.431)">
      <g id="Group_2302" data-name="Group 2302">
        <path id="Path_3300" data-name="Path 3300" d="M23.2,282.188H17.544a.442.442,0,1,0,0,.884H23.2a.442.442,0,1,0,0-.884Z" transform="translate(-17.102 -282.188)" fill="#fff"/>
      </g>
    </g>
    <g id="Group_2305" data-name="Group 2305" transform="translate(8.012 98.304)">
      <g id="Group_2304" data-name="Group 2304">
        <path id="Path_3301" data-name="Path 3301" d="M152.722,171.152a.442.442,0,0,0-.625,0l-3.929,3.929-2.044-2.044a.442.442,0,0,0-.625.625l2.357,2.357a.442.442,0,0,0,.625,0l4.242-4.242A.442.442,0,0,0,152.722,171.152Z" transform="translate(-145.37 -171.023)" fill="#fff"/>
      </g>
    </g>
  </g>
</svg>
