<svg xmlns="http://www.w3.org/2000/svg" xmlns:xlink="http://www.w3.org/1999/xlink" width="18.014" height="22.103" viewBox="0 0 18.014 22.103">
  <defs>
    <linearGradient id="linear-gradient" x1="0.5" x2="0.5" y2="1" gradientUnits="objectBoundingBox">
      <stop offset="0" stop-color="#4b6cb7"/>
      <stop offset="1" stop-color="#182848"/>
    </linearGradient>
  </defs>
  <g id="flag-solid" transform="translate(-4.92 -2)">
    <path id="Path_3338" data-name="Path 3338" d="M5.611,2a.691.691,0,0,0-.691.691V23.412a.691.691,0,0,0,1.381,0V2.691A.691.691,0,0,0,5.611,2Z" fill="url(#linear-gradient)"/>
    <path id="Path_3339" data-name="Path 3339" d="M23.85,3.257a.691.691,0,0,0-.691,0,10.292,10.292,0,0,1-4.234.8,9.055,9.055,0,0,1-3.578-1.029A8.827,8.827,0,0,0,11.9,2,7.5,7.5,0,0,0,9,2.587V14.433a6.078,6.078,0,0,1,2.935-.746,7.75,7.75,0,0,1,2.9.884,10.25,10.25,0,0,0,4.144,1.147,11.6,11.6,0,0,0,4.835-.946.691.691,0,0,0,.38-.615V3.844A.691.691,0,0,0,23.85,3.257Z" transform="translate(-1.262)" fill="url(#linear-gradient)"/>
  </g>
</svg>
