<svg xmlns="http://www.w3.org/2000/svg" xmlns:xlink="http://www.w3.org/1999/xlink" width="212" height="232" viewBox="0 0 212 232">
  <defs>
    <filter id="Rectangle_381" x="0" y="0" width="212" height="232" filterUnits="userSpaceOnUse">
      <feOffset dy="3" input="SourceAlpha"/>
      <feGaussianBlur stdDeviation="3" result="blur"/>
      <feFlood flood-color="#3f64a4" flood-opacity="0.157"/>
      <feComposite operator="in" in2="blur"/>
      <feComposite in="SourceGraphic"/>
    </filter>
  </defs>
  <g id="Jobs" transform="translate(9 6.023)">
    <g transform="matrix(1, 0, 0, 1, -9, -6.02)" filter="url(#Rectangle_381)">
      <rect id="Rectangle_381-2" data-name="Rectangle 381" width="194" height="214" rx="12" transform="translate(9 6)" fill="#6e85ae"/>
    </g>
    <text id="Jobs-2" data-name="Jobs" transform="translate(18 31.977)" fill="#fff" font-size="19" font-family="Roboto-Bold, Roboto" font-weight="700"><tspan x="0" y="0">Jobs</tspan></text>
    <g id="Group_989" data-name="Group 989" transform="translate(3.71 66.924)">
      <g id="Group_988" data-name="Group 988" transform="translate(3.595 0)">
        <rect id="Rectangle_431" data-name="Rectangle 431" width="180.271" height="17.185" transform="translate(0 95.427)" fill="#fff"/>
        <g id="Group_965" data-name="Group 965" transform="translate(25.562 44.171)">
          <path id="Path_485" data-name="Path 485" d="M197.612,356.959s-2.462,2.529-4.953,5.332c-1.042,1.169-2.088,2.385-2.959,3.482-2.964,3.724-5.748,4.77-9.035,8.422-2.013,2.237-4.673,3.958-9.643,4.754s-23.1,2.087-23.1,2.087a9.314,9.314,0,0,1-.136-3.167c.085-.2-.128-.676-.421-1.263-.791-1.594-2.143-4.035.421-4.328,3.507-.4,20.514-4.52,21.33-5.765s5.412-6.926,7.891-12.117,6.2-11.508,9.983-17.67c3.334-5.424,4.269-5.714,6.067-7.279l2.092,12.649Z" transform="translate(-127.573 -329.446)" fill="#6d9bff"/>
          <path id="Path_486" data-name="Path 486" d="M116.031,436.678H103.949v-.518a6.041,6.041,0,0,1,6.041-6.041h0a6.041,6.041,0,0,1,6.041,6.041Z" transform="translate(-103.949 -385.609)" fill="#a5a5a5"/>
          <path id="Path_487" data-name="Path 487" d="M117.368,427.176c-.984-.373-3.933-1.754-5.527-1.754s-4.252,2.711-5.74,4.039.582,2.555,1.753,1.949c1.222-.632,2.376-2.158,3.545-2.11s1.663,1.064,2.3,1.277c.319.107.492.957-.107,1.382s-1.968.425-2.34.664c-.744.478-.266,1.777,1.01,1.777a18.068,18.068,0,0,0,3.881-.156c1.524-.289,3.39.123,4.565-.351s4.5.686,4.5.686l-2.37-6.5A23.984,23.984,0,0,1,117.368,427.176Z" transform="translate(-104.861 -382.989)" fill="#a15c33"/>
          <path id="Path_488" data-name="Path 488" d="M134.162,427.676c.248.971.871,1.632,1.382,3.117,1.116,3.245-.3,3.861-.3,3.861s6.194.424,7.278,0c0,0,1.5-1.669,0-5l-1.5-3.334a31.966,31.966,0,0,0-3.667.4A8.362,8.362,0,0,0,134.162,427.676Z" transform="translate(-120.804 -383.488)" fill="#2c5cff"/>
        </g>
        <g id="Group_969" data-name="Group 969" transform="translate(90.601 0)">
          <g id="Group_968" data-name="Group 968" transform="translate(9.765)">
            <path id="Path_489" data-name="Path 489" d="M298.2,280.1a28.089,28.089,0,0,0-1.36,6.77c-.115,3.135-.117,7.465.8,9.137s10.619,7.33,10.619,7.33a95.761,95.761,0,0,1-21.9,1.635c-10.892-.645-13.226-5.283-13.226-5.283s8.272-3.246,8.495-4.068,1.831-7.09,1.831-7.09Z" transform="translate(-273.139 -257.747)" fill="#a15c33"/>
            <path id="Path_490" data-name="Path 490" d="M297.41,295.469c-.682-1.936-.673-5.755-.569-8.6a28.089,28.089,0,0,1,1.36-6.77l-14.737,8.433s-1.608,6.268-1.831,7.09-8.495,4.068-8.495,4.068a3.165,3.165,0,0,0,.29.436C281.459,298.756,289.441,297.149,297.41,295.469Z" transform="translate(-273.139 -257.747)" fill="#b26634"/>
            <g id="Group_967" data-name="Group 967" transform="translate(4.541)">
              <path id="Path_491" data-name="Path 491" d="M286.275,257.525c.336-2.629.429-12.1.429-12.1l12.677-4.467,11.077,6.178s-2.657,8.4-2.7,11.053-.224,6.2-1.88,8.731a31.312,31.312,0,0,1-6.993,6.933c-3.048,1.4-5.046.452-7.342-.9-.965-.567-2.3-3.429-3.575-6.174A19.134,19.134,0,0,1,286.275,257.525Z" transform="translate(-284.963 -235.912)" fill="#a15c33"/>
              <path id="Path_492" data-name="Path 492" d="M304.63,244.583a18.766,18.766,0,0,0,.932,5.623,10.615,10.615,0,0,1-.15,3.364q.678-.765,1.387-1.509c.915-.958,1.765-1.954,2.571-2.979.473-1.929,1.313-4.55,1.284-6.043-.09-4.54-.085-7.086-8.415-11.15-1.581-.771-4.8-2.853-6.45-2.236-2.455.919-3.189,1.813-5.126,3.463,0,0-2.61-.523-5.861,2.991-1.921,2.076-1.333,5.073-1.22,7.332.228,4.594,1.446,4.346,1.446,4.346.189-2.337-.21-3.311.487-6.837.235-1.192,2.007-1.588,3.214-1.843,1.161-.246,1.561-.694,5.408,3.122C296.414,244.485,297.66,244.293,304.63,244.583Z" transform="translate(-283.409 -229.54)" fill="#5c3000"/>
              <g id="Group_966" data-name="Group 966" transform="translate(21.345 18.271)">
                <path id="Path_493" data-name="Path 493" d="M331.859,274.782c.613-2.29,1.6-4,2.634-3.914s2.087,1.992.8,4.162a41.8,41.8,0,0,1-2.808,4.352C331.794,280.251,331.461,276.27,331.859,274.782Z" transform="translate(-331.688 -270.865)" fill="#a15c33"/>
                <path id="Path_494" data-name="Path 494" d="M333.444,276.978c.369-1.248.914-2.792,1.837-2.682s1.07,1.115-.206,2.855a10.626,10.626,0,0,0-1.561,2.651A11.9,11.9,0,0,1,333.444,276.978Z" transform="translate(-332.627 -272.776)" fill="#b26634"/>
              </g>
            </g>
          </g>
          <path id="Path_495" data-name="Path 495" d="M276.394,345.346c-1.386,8.044-2.007,27.815-5.391,26.326-1.854-.821-7.623-.79-12.453-.6-3.971.157-7.309.425-7.309.425s-.229-8.933-.14-18.056c.038-4.358.153-8.758.4-12.249q.121-1.722.166-3.3c.31-10.191-1.386-16.118-.166-17.291,1.348-1.3,16.756-5.187,17.5-7.016l1.139,5.455c2.823,4.5,6.488,3.151,6.488,3.151S277.775,337.307,276.394,345.346Z" transform="translate(-251.053 -276.423)" fill="#6d9bff"/>
          <path id="Path_496" data-name="Path 496" d="M293.736,330.3c-.745,4.459-.949,7.947-2.229,16.514s-.679,12.1-1.236,17.5-1.633,13.377-1.633,13.377l9.242,1.351s.311-15.476.793-26.369a166.6,166.6,0,0,1,2.284-20.559L302.2,325.5s-3.417,3.633-6.948,3.259S293.736,330.3,293.736,330.3Z" transform="translate(-272.021 -283.073)" fill="#2c5cff"/>
          <path id="Path_497" data-name="Path 497" d="M326.8,330.855c-.34,3.308,1.2,7.428.485,12.049-.481,3.083-1.114,6.841-1.769,10.629-.927,5.34-.416,18.886-.416,18.886s-21.105-.731-24.668.259-1.339-18.665-1.556-26.824,3.086-22.959,3.086-22.959,2.742-.013,6.948-3.261a8.2,8.2,0,0,0,3.044-4.643c.476,1.913,14.838,6.246,15.986,7.721a2.639,2.639,0,0,1,.4,1.241s0,0,0,0C328.547,325.383,327.118,327.764,326.8,330.855Z" transform="translate(-277.462 -277.212)" fill="#6d9bff"/>
          <path id="Path_498" data-name="Path 498" d="M306.471,321.048c1.279-.355,5.568-2.732,7.153-4.855a12.307,12.307,0,0,0,2.041-4.513,13.022,13.022,0,0,1,1.668,3.974c.158,1.533-3.428,9.062-4.116,11.161a8.323,8.323,0,0,1-3.254-2.047A25.615,25.615,0,0,1,306.471,321.048Z" transform="translate(-281.969 -275.364)" fill="#2c5cff"/>
          <path id="Path_499" data-name="Path 499" d="M289.9,312.994s-.709,1.054.893,3.676a22.056,22.056,0,0,0,5.092,5.111l-5.678,5.5a62.709,62.709,0,0,1-2.126-6.094c-.781-2.831-.684-5.835-.264-6.7S289.9,312.994,289.9,312.994Z" transform="translate(-271.384 -276.097)" fill="#2c5cff"/>
          <path id="Path_500" data-name="Path 500" d="M306.575,358.331a1.488,1.488,0,1,1-1.377-1.591A1.488,1.488,0,0,1,306.575,358.331Z" transform="translate(-280.369 -300.5)" fill="#2c5cff"/>
          <path id="Path_501" data-name="Path 501" d="M303.984,394.294a1.488,1.488,0,1,1-1.377-1.591A1.488,1.488,0,0,1,303.984,394.294Z" transform="translate(-278.924 -320.563)" fill="#2c5cff"/>
          <path id="Path_502" data-name="Path 502" d="M301.394,430.256a1.488,1.488,0,1,1-1.377-1.591A1.488,1.488,0,0,1,301.394,430.256Z" transform="translate(-277.479 -340.625)" fill="#2c5cff"/>
          <path id="Path_503" data-name="Path 503" d="M321.641,373.577a86.754,86.754,0,0,0,9.236.589v2.33s-3.688-.4-6.875-.4h-4.614l.4-2.521S319.74,373.416,321.641,373.577Z" transform="translate(-289.175 -309.855)" fill="#2c5cff"/>
        </g>
        <g id="Group_974" data-name="Group 974" transform="translate(73.98 91.892)">
          <g id="Group_970" data-name="Group 970" transform="translate(0 0.986)">
            <rect id="Rectangle_432" data-name="Rectangle 432" width="20.23" height="2.364" fill="#e9ebee"/>
            <rect id="Rectangle_433" data-name="Rectangle 433" width="20.23" height="2.364" fill="none"/>
          </g>
          <g id="Group_971" data-name="Group 971" transform="translate(20.23 0.986)">
            <rect id="Rectangle_434" data-name="Rectangle 434" width="26.077" height="2.364" fill="#e9ebee"/>
            <rect id="Rectangle_435" data-name="Rectangle 435" width="26.077" height="2.364" fill="none"/>
          </g>
          <g id="Group_972" data-name="Group 972" transform="translate(3.409)">
            <path id="Path_504" data-name="Path 504" d="M262.361,437.383v.986H266v-.986h-3.64Z" transform="translate(-244.15 -437.383)" fill="#d5d5d7"/>
            <path id="Path_505" data-name="Path 505" d="M252.064,437.383v.986h3.64v-.986h-3.64Z" transform="translate(-238.405 -437.383)" fill="#d5d5d7"/>
            <path id="Path_506" data-name="Path 506" d="M241.766,437.383v.986h3.641v-.986h-3.641Z" transform="translate(-232.66 -437.383)" fill="#d5d5d7"/>
            <path id="Path_507" data-name="Path 507" d="M231.468,437.383v.986h3.641v-.986h-3.641Z" transform="translate(-226.915 -437.383)" fill="#d5d5d7"/>
            <path id="Path_508" data-name="Path 508" d="M305.46,437.383h-1.267v.986h3.64v-.986Z" transform="translate(-267.487 -437.383)" fill="#d5d5d7"/>
            <path id="Path_509" data-name="Path 509" d="M293.9,437.383v.986h3.641v-.986H293.9Z" transform="translate(-261.742 -437.383)" fill="#d5d5d7"/>
            <path id="Path_510" data-name="Path 510" d="M283.6,437.383v.986h3.64v-.986H283.6Z" transform="translate(-255.997 -437.383)" fill="#d5d5d7"/>
            <path id="Path_511" data-name="Path 511" d="M273.3,437.383v.986h3.641v-.986H273.3Z" transform="translate(-250.252 -437.383)" fill="#d5d5d7"/>
            <path id="Path_512" data-name="Path 512" d="M221.17,437.383v.986h3.641v-.986H221.17Z" transform="translate(-221.17 -437.383)" fill="#d5d5d7"/>
          </g>
          <g id="Group_973" data-name="Group 973" transform="translate(3.409)">
            <path id="Path_513" data-name="Path 513" d="M262.361,437.383v.986H266v-.986h-3.64Z" transform="translate(-244.15 -437.383)" fill="none"/>
            <path id="Path_514" data-name="Path 514" d="M252.064,437.383v.986h3.64v-.986h-3.64Z" transform="translate(-238.405 -437.383)" fill="none"/>
            <path id="Path_515" data-name="Path 515" d="M241.766,437.383v.986h3.641v-.986h-3.641Z" transform="translate(-232.66 -437.383)" fill="none"/>
            <path id="Path_516" data-name="Path 516" d="M231.468,437.383v.986h3.641v-.986h-3.641Z" transform="translate(-226.915 -437.383)" fill="none"/>
            <path id="Path_517" data-name="Path 517" d="M305.46,437.383h-1.267v.986h3.64v-.986Z" transform="translate(-267.487 -437.383)" fill="none"/>
            <path id="Path_518" data-name="Path 518" d="M293.9,437.383v.986h3.641v-.986H293.9Z" transform="translate(-261.742 -437.383)" fill="none"/>
            <path id="Path_519" data-name="Path 519" d="M283.6,437.383v.986h3.64v-.986H283.6Z" transform="translate(-255.997 -437.383)" fill="none"/>
            <path id="Path_520" data-name="Path 520" d="M273.3,437.383v.986h3.641v-.986H273.3Z" transform="translate(-250.252 -437.383)" fill="none"/>
            <path id="Path_521" data-name="Path 521" d="M221.17,437.383v.986h3.641v-.986H221.17Z" transform="translate(-221.17 -437.383)" fill="none"/>
          </g>
        </g>
        <g id="Group_979" data-name="Group 979" transform="translate(5.808 28.96)">
          <g id="Group_975" data-name="Group 975" transform="translate(1.352)">
            <path id="Path_522" data-name="Path 522" d="M135.707,295.042H64.236a1.874,1.874,0,0,0-1.9,2.116l5.007,48.406a2.4,2.4,0,0,0,2.336,2.117h71.471a1.874,1.874,0,0,0,1.9-2.117l-5.008-48.406A2.4,2.4,0,0,0,135.707,295.042Z" transform="translate(-62.326 -295.042)" fill="#fafcff"/>
          </g>
          <g id="Group_976" data-name="Group 976" transform="translate(1.352)">
            <path id="Path_523" data-name="Path 523" d="M135.707,295.042H64.236a1.874,1.874,0,0,0-1.9,2.116l5.007,48.406a2.4,2.4,0,0,0,2.336,2.117h71.471a1.874,1.874,0,0,0,1.9-2.117l-5.008-48.406A2.4,2.4,0,0,0,135.707,295.042Z" transform="translate(-62.326 -295.042)" fill="#6b6b6b"/>
          </g>
          <path id="Path_524" data-name="Path 524" d="M132.676,295.042H61.2a1.905,1.905,0,0,0-1.929,2.116l4.306,48.406a2.361,2.361,0,0,0,2.3,2.117h71.471a1.906,1.906,0,0,0,1.929-2.117l-4.306-48.406A2.361,2.361,0,0,0,132.676,295.042Z" transform="translate(-59.268 -295.042)" fill="#d5d5d7"/>
          <g id="Group_977" data-name="Group 977" transform="translate(60.121 43.087)" style="mix-blend-mode: multiply;isolation: isolate">
            <path id="Path_525" data-name="Path 525" d="M196.517,398.143h0a.933.933,0,0,1-.911-.836l-.354-3.974a.753.753,0,0,1,.762-.837h0a.933.933,0,0,1,.911.837l.354,3.974A.753.753,0,0,1,196.517,398.143Z" transform="translate(-195.249 -392.496)" fill="#e9ebee"/>
            <path id="Path_526" data-name="Path 526" d="M202.509,398.143h0a.933.933,0,0,1-.911-.836l-.353-3.974a.753.753,0,0,1,.762-.837h0a.933.933,0,0,1,.911.837l.354,3.974A.753.753,0,0,1,202.509,398.143Z" transform="translate(-198.592 -392.496)" fill="#e9ebee"/>
            <path id="Path_527" data-name="Path 527" d="M208.5,398.143h0a.933.933,0,0,1-.911-.836l-.353-3.974A.753.753,0,0,1,208,392.5h0a.933.933,0,0,1,.911.837l.354,3.974A.753.753,0,0,1,208.5,398.143Z" transform="translate(-201.935 -392.496)" fill="#e9ebee"/>
            <path id="Path_528" data-name="Path 528" d="M214.493,398.143h0a.933.933,0,0,1-.911-.836l-.353-3.974a.753.753,0,0,1,.762-.837h0a.933.933,0,0,1,.911.837l.354,3.974A.753.753,0,0,1,214.493,398.143Z" transform="translate(-205.277 -392.496)" fill="#e9ebee"/>
            <path id="Path_529" data-name="Path 529" d="M220.485,398.143h0a.933.933,0,0,1-.911-.836l-.354-3.974a.753.753,0,0,1,.762-.837h0a.933.933,0,0,1,.911.837l.353,3.974A.753.753,0,0,1,220.485,398.143Z" transform="translate(-208.62 -392.496)" fill="#e9ebee"/>
          </g>
          <g id="Group_978" data-name="Group 978" transform="translate(28.034 26.32)">
            <path id="Path_530" data-name="Path 530" d="M174.861,441.1H164.9v1.871l9.963.308Z" transform="translate(-146.23 -402.845)" fill="#6b6b6b"/>
            <path id="Path_531" data-name="Path 531" d="M139.672,384.428l2.542-29.856H131.242l-4.753,29.556c-.646,3.417.411,7.037,2.536,8.684l2.437,1.888h13.506l-.241-1.871A7.694,7.694,0,0,1,139.672,384.428Z" transform="translate(-124.698 -354.572)" fill="#6b6b6b"/>
            <path id="Path_532" data-name="Path 532" d="M136.047,384.428l2.542-29.856H127.617l-4.753,29.556c-.646,3.417.411,7.037,2.536,8.684l2.437,1.888h13.506l-2.68-2.076C136.65,391.064,135.582,387.717,136.047,384.428Z" transform="translate(-122.676 -354.572)" fill="#a5a5a5"/>
            <path id="Path_533" data-name="Path 533" d="M136.646,431.657H123.338a7.392,7.392,0,0,0,2.432,4.158l2.437,1.888h13.506l-2.68-2.076A7.294,7.294,0,0,1,136.646,431.657Z" transform="translate(-123.045 -397.576)" fill="#6b6b6b"/>
          </g>
        </g>
        <g id="Group_982" data-name="Group 982" transform="translate(103.24 44.434)">
          <path id="Path_534" data-name="Path 534" d="M375.156,374.344s-4.133-2.266-7.423-3.758-8.129,1.191-8.129,1.191-.6-1.531-1.42-3.512c-.837-2.02-1.918-4.512-2.857-6.335a11.291,11.291,0,0,0-1.407-2.27c-1.666-1.752-1.513-3.852-1.977-4.873a.817.817,0,0,1-.047-.136c-.344-1.314.569-6.731,1.611-11.624,1.08-5.08,2.457-12.984,2.457-12.984.506.421,2.156.825,3.07,1.883,0,0,5.992,9.112,8.529,15.4,4.6,11.4,5.349,13.767,6.123,17.968S375.156,374.344,375.156,374.344Z" transform="translate(-319.909 -330.042)" fill="#6d9bff"/>
          <g id="Group_981" data-name="Group 981" transform="translate(0 32.734)">
            <g id="Group_980" data-name="Group 980" transform="translate(0 8.719)">
              <path id="Path_535" data-name="Path 535" d="M288.126,430.954c3.528-.715,6.162,1.019,8.363,1.157S306.6,431.4,306.6,431.4l-1.762-4.058s-9.007-.172-12.068.849A11.59,11.59,0,0,0,288.126,430.954Z" transform="translate(-284.374 -425.77)" fill="#fdd2bb"/>
              <path id="Path_536" data-name="Path 536" d="M301.894,424.876a69.848,69.848,0,0,0-6.954-.888c-3.811-.11-8.1-.091-8.969.631s-5.43,5.876-6.042,6.725-.32,1.813,1.579,1.142,5.046-4.293,6.955-5.144,5.452-.115,5.452-.115l7.023-.673Z" transform="translate(-279.64 -423.877)" fill="#a15c33"/>
              <path id="Path_537" data-name="Path 537" d="M296.389,424.284a47.809,47.809,0,0,0-15.818,6.459c-.307.364-.536.646-.643.794-.612.848-.32,1.813,1.579,1.142s5.046-4.293,6.955-5.144,5.452-.115,5.452-.115l7.023-.673.956-1.678S298.766,424.521,296.389,424.284Z" transform="translate(-279.64 -424.07)" fill="#b26634"/>
              <path id="Path_538" data-name="Path 538" d="M300.736,425.576s-6.529-.45-8.243-.635-3.044,1.251-4,2.929-2.9,4.589-2.48,5.455,1.488.79,2.4-.169,2.126-3.423,3.416-3.89,5.6-1.488,5.6-1.488Z" transform="translate(-283.162 -424.427)" fill="#a15c33"/>
              <path id="Path_539" data-name="Path 539" d="M295.441,427.175c-2.7,1.133-5.086,7.449-4.169,6.49s2.126-3.423,3.416-3.89,5.6-1.488,5.6-1.488l3.3-2.2s-1.632-.112-3.479-.248A20.291,20.291,0,0,0,295.441,427.175Z" transform="translate(-286.017 -424.936)" fill="#b26634"/>
              <path id="Path_540" data-name="Path 540" d="M317.394,430.79s-3.36-.239-4.532.92a4.35,4.35,0,0,1-3.515,1.543,14.385,14.385,0,0,1-4.107-1.724c-.933-.562-3.931,1.353-4.881,1.817a.991.991,0,0,1-1.353-1.379,5.718,5.718,0,0,1,2.25-2.392,35.81,35.81,0,0,1,4.209-1.256s-.022,0-.062-.009a.135.135,0,0,1-.04,0,19,19,0,0,0-2.953-.155,4.879,4.879,0,0,0-3.427,2.206c-1.065,1.419-2.206,3.02-2.812,3.281a.507.507,0,0,1-.579-.159,2.22,2.22,0,0,1-.049-2.432,36.12,36.12,0,0,1,3.9-5.642c1.07-1.331,2.675-1.441,4.191-1.494s5.053-.04,5.053-.04,3.908-.093,6.048-.066C316.019,423.822,317.394,430.79,317.394,430.79Z" transform="translate(-288.333 -423.799)" fill="#a15c33"/>
              <path id="Path_541" data-name="Path 541" d="M336.623,423.806c-.469-.006-1.024-.005-1.6,0a49.355,49.355,0,0,1-.561,8.174c.1-.087.2-.172.292-.268,1.172-1.156,4.533-.918,4.533-.918S337.909,423.821,336.623,423.806Z" transform="translate(-310.223 -423.801)" fill="#a15c33"/>
              <path id="Path_542" data-name="Path 542" d="M305.933,432.547s-.022,0-.062-.009a.136.136,0,0,1-.04,0,19,19,0,0,0-2.953-.155,4.879,4.879,0,0,0-3.426,2.206c-1.066,1.419-2.206,3.02-2.812,3.281a.507.507,0,0,1-.579-.159,40.294,40.294,0,0,0,2.922-4.554c.884-1.5,3.471-1.755,4.09-1.773A12.244,12.244,0,0,1,305.933,432.547Z" transform="translate(-288.8 -428.028)" fill="#b26634"/>
            </g>
            <path id="Path_543" data-name="Path 543" d="M355.411,406.82a27.036,27.036,0,0,1-7.9,3.964,67.73,67.73,0,0,1-8.155,2.02s.371,4.156.5,8.493c0,0,11.054,1.746,18.255.344s9.007-1.17,10.219-4.3-.788-9.279-1.713-11.986S359.9,404.76,355.411,406.82Z" transform="translate(-312.952 -404.079)" fill="#6d9bff"/>
            <path id="Path_544" data-name="Path 544" d="M336.432,423c1.185,1.582,1.162,3.979,1.449,7.279.2,2.312-.58,2.246-.58,2.246l6.048-.186a16.1,16.1,0,0,0-.275-6.719l-.955-3.221Z" transform="translate(-311.323 -414.299)" fill="#2c5cff"/>
          </g>
        </g>
        <g id="Group_987" data-name="Group 987" transform="translate(158.772 61.713)">
          <g id="Group_983" data-name="Group 983" transform="translate(6.089 4.887)">
            <path id="Path_545" data-name="Path 545" d="M419.04,395.612a2.461,2.461,0,0,1,1.723-1.948c.651-.184,1.435-.123,1.895-.618.512-.551.3-1.419.29-2.171a3.679,3.679,0,0,1,2.4-3.43,5.182,5.182,0,0,0,1.806-.706,3.682,3.682,0,0,0,.852-1.791,8.366,8.366,0,0,1,2.85-4.108,2.285,2.285,0,0,1,1.943-.607,1.613,1.613,0,0,1,1.044,1.186,2.854,2.854,0,0,1-.152,1.624c-.725,2-2.76,3.395-3.2,5.478-.22,1.031-.016,2.118-.243,3.147a3.893,3.893,0,0,1-2.22,2.69,3.4,3.4,0,0,0-1.53.848c-.4.548-.26,1.306-.347,1.981a3.24,3.24,0,0,1-3.04,2.638,4.337,4.337,0,0,1-3.677-1.988A5.4,5.4,0,0,1,419.04,395.612Z" transform="translate(-419.016 -380.177)" fill="#4bbd6d"/>
          </g>
          <g id="Group_984" data-name="Group 984" transform="translate(6.867)">
            <path id="Path_546" data-name="Path 546" d="M426.792,388a2.24,2.24,0,0,0,.254-2.355c-.276-.551-.8-1.041-.747-1.656.057-.683.771-1.073,1.284-1.527a3.352,3.352,0,0,0,.839-3.718c-1.119-2.631,1.293-4.969,1.067-7.763a2.083,2.083,0,0,0-.784-1.681,1.47,1.47,0,0,0-1.439.025,2.593,2.593,0,0,0-1,1.1c-.734,1.393-.766,2.925-1.258,4.382-.466,1.38-1.618,2.075-2.434,3.232a3.546,3.546,0,0,0-.448,3.145,3.1,3.1,0,0,1,.369,1.551c-.122.608-.72.977-1.121,1.449a2.951,2.951,0,0,0,.09,3.666,3.95,3.95,0,0,0,3.6,1.256A4.916,4.916,0,0,0,426.792,388Z" transform="translate(-420.776 -369.123)" fill="#44ab63"/>
          </g>
          <g id="Group_985" data-name="Group 985" transform="translate(0 7.311)">
            <path id="Path_547" data-name="Path 547" d="M417.409,398.875a2.061,2.061,0,0,0-1.4-1.669c-.542-.168-1.2-.133-1.575-.558-.417-.472-.222-1.2-.2-1.825A3.084,3.084,0,0,0,412.3,391.9a4.343,4.343,0,0,1-1.5-.63,3.088,3.088,0,0,1-.676-1.519,7.017,7.017,0,0,0-2.3-3.5,1.915,1.915,0,0,0-1.615-.55,1.353,1.353,0,0,0-.9.972,2.39,2.39,0,0,0,.093,1.365c.565,1.694,2.241,2.9,2.569,4.659.162.869-.031,1.775.138,2.643a3.262,3.262,0,0,0,1.8,2.3,2.848,2.848,0,0,1,1.264.742c.327.468.19,1.1.249,1.668a2.716,2.716,0,0,0,2.492,2.275,3.636,3.636,0,0,0,3.124-1.589A4.529,4.529,0,0,0,417.409,398.875Z" transform="translate(-405.244 -385.658)" fill="#44ab63"/>
          </g>
          <g id="Group_986" data-name="Group 986" transform="translate(3.451 0.414)">
            <path id="Path_548" data-name="Path 548" d="M414.186,386.268a14.7,14.7,0,0,0-.9-1.672,4.089,4.089,0,0,1,.271-3.253,5.183,5.183,0,0,0,.736-2.358,6.692,6.692,0,0,0-.425-1.506,10.245,10.245,0,0,1-.215-3.71,6.871,6.871,0,0,1,.392-2.225,2.073,2.073,0,0,1,4.012.122,6.388,6.388,0,0,1,.176,3.073,7.911,7.911,0,0,0,.031,3.088,32.636,32.636,0,0,0,1.615,3.134,4.9,4.9,0,0,1-.265,4.208,10.534,10.534,0,0,0-1.095,1.9c-.464,1.47.472,2.987.661,4.517a3.526,3.526,0,0,1-.737,2.751c-1.477,1.682-3.9.518-4.437-1.367a8.28,8.28,0,0,1-.438-3.224C413.732,388.6,414.535,387.46,414.186,386.268Z" transform="translate(-413.05 -370.06)" fill="#4bbd6d"/>
          </g>
          <path id="Path_549" data-name="Path 549" d="M422.148,425.594h-9.742l-3.216-15.627h16.173Z" transform="translate(-407.445 -391.908)" fill="#d5d5d7"/>
        </g>
      </g>
      <rect id="Rectangle_436" data-name="Rectangle 436" width="187.461" height="6.063" transform="translate(0 95.716)" fill="none" stroke="#d4dbf1" stroke-miterlimit="10" stroke-width="1"/>
    </g>
  </g>
</svg>
