<svg id="Order_Placed" data-name="Order Placed" xmlns="http://www.w3.org/2000/svg" width="19.162" height="23.475" viewBox="0 0 19.162 23.475">
  <g id="Group_2264" data-name="Group 2264" transform="translate(2.352 3.528)">
    <g id="Group_2263" data-name="Group 2263">
      <path id="Path_3277" data-name="Path 3277" d="M101.058,78.136a.368.368,0,0,0-.368.368.809.809,0,1,1-.809-.809.368.368,0,1,0,0-.735,1.544,1.544,0,1,0,1.544,1.544A.368.368,0,0,0,101.058,78.136Z" transform="translate(-98.338 -76.96)" fill="#fff"/>
    </g>
  </g>
  <g id="Group_2266" data-name="Group 2266" transform="translate(2.352 7.841)">
    <g id="Group_2265" data-name="Group 2265">
      <path id="Path_3278" data-name="Path 3278" d="M101.058,172.2a.368.368,0,0,0-.368.368.809.809,0,1,1-.809-.809.368.368,0,0,0,0-.735,1.544,1.544,0,1,0,1.544,1.544A.368.368,0,0,0,101.058,172.2Z" transform="translate(-98.338 -171.022)" fill="#fff"/>
    </g>
  </g>
  <g id="Group_2268" data-name="Group 2268" transform="translate(6.273 9.801)">
    <g id="Group_2267" data-name="Group 2267">
      <path id="Path_3279" data-name="Path 3279" d="M186.961,213.779h-2.744a.368.368,0,1,0,0,.735h2.744a.368.368,0,1,0,0-.735Z" transform="translate(-183.849 -213.779)" fill="#fff"/>
    </g>
  </g>
  <g id="Group_2270" data-name="Group 2270" transform="translate(6.273 8.233)">
    <g id="Group_2269" data-name="Group 2269">
      <path id="Path_3280" data-name="Path 3280" d="M186.961,179.574h-2.744a.368.368,0,1,0,0,.735h2.744a.368.368,0,1,0,0-.735Z" transform="translate(-183.849 -179.574)" fill="#fff"/>
    </g>
  </g>
  <g id="Group_2272" data-name="Group 2272" transform="translate(6.273 14.114)">
    <g id="Group_2271" data-name="Group 2271">
      <path id="Path_3281" data-name="Path 3281" d="M186.177,307.841h-1.96a.368.368,0,1,0,0,.735h1.96a.368.368,0,0,0,0-.735Z" transform="translate(-183.849 -307.841)" fill="#fff"/>
    </g>
  </g>
  <g id="Group_2274" data-name="Group 2274" transform="translate(6.273 12.546)">
    <g id="Group_2273" data-name="Group 2273">
      <path id="Path_3282" data-name="Path 3282" d="M186.961,273.637h-2.744a.368.368,0,1,0,0,.735h2.744a.368.368,0,1,0,0-.735Z" transform="translate(-183.849 -273.637)" fill="#fff"/>
    </g>
  </g>
  <g id="Group_2276" data-name="Group 2276" transform="translate(6.273 5.489)">
    <g id="Group_2275" data-name="Group 2275">
      <path id="Path_3283" data-name="Path 3283" d="M190.489,119.716h-6.273a.368.368,0,1,0,0,.735h6.273a.368.368,0,0,0,0-.735Z" transform="translate(-183.849 -119.716)" fill="#fff"/>
    </g>
  </g>
  <g id="Group_2278" data-name="Group 2278" transform="translate(6.273 3.92)">
    <g id="Group_2277" data-name="Group 2277">
      <path id="Path_3284" data-name="Path 3284" d="M188.921,85.511h-4.7a.368.368,0,1,0,0,.735h4.7a.368.368,0,1,0,0-.735Z" transform="translate(-183.849 -85.511)" fill="#fff"/>
    </g>
  </g>
  <g id="Group_2280" data-name="Group 2280" transform="translate(2.352 12.154)">
    <g id="Group_2279" data-name="Group 2279">
      <path id="Path_3285" data-name="Path 3285" d="M101.058,266.261a.368.368,0,0,0-.368.368.809.809,0,1,1-.809-.809.368.368,0,1,0,0-.735,1.544,1.544,0,1,0,1.544,1.544A.368.368,0,0,0,101.058,266.261Z" transform="translate(-98.338 -265.085)" fill="#fff"/>
    </g>
  </g>
  <g id="Group_2282" data-name="Group 2282" transform="translate(0)">
    <g id="Group_2281" data-name="Group 2281">
      <path id="Path_3286" data-name="Path 3286" d="M61.512,0H48.183a1.153,1.153,0,0,0-1.152,1.152V17.618a1.153,1.153,0,0,0,1.152,1.152h6.665a.368.368,0,0,0,0-.735H48.183a.417.417,0,0,1-.417-.417V1.152a.417.417,0,0,1,.417-.417h13.33a.417.417,0,0,1,.417.417V13.305a.368.368,0,0,0,.735,0V1.152A1.153,1.153,0,0,0,61.512,0Z" transform="translate(-47.031)" fill="#fff"/>
    </g>
  </g>
  <g id="Group_2284" data-name="Group 2284" transform="translate(8.822 8.233)">
    <g id="Group_2283" data-name="Group 2283" transform="translate(0)">
      <path id="Path_3287" data-name="Path 3287" d="M248.581,186.25a1.356,1.356,0,0,0-.953.268,1.339,1.339,0,0,0-1.007-.66,1.356,1.356,0,0,0-.953.268,1.339,1.339,0,0,0-1.007-.66,1.358,1.358,0,0,0-.75.141v-4.681a1.348,1.348,0,0,0-1.485-1.341,1.391,1.391,0,0,0-1.21,1.4v4.693l-1.08,1.08a2.313,2.313,0,0,0-.62,2.179l.82,3.486a3.1,3.1,0,0,0,3.029,2.4h3.315a3.115,3.115,0,0,0,3.112-3.112v-4.061A1.39,1.39,0,0,0,248.581,186.25Zm.475,5.457a2.38,2.38,0,0,1-2.377,2.377h-3.315a2.368,2.368,0,0,1-2.314-1.832l-.82-3.486a1.583,1.583,0,0,1,.424-1.491l.561-.561v1.269a.368.368,0,1,0,.735,0v-7a.65.65,0,0,1,.548-.665.613.613,0,0,1,.677.609v6.469a.368.368,0,1,0,.735,0v-.588a.613.613,0,0,1,.677-.609.65.65,0,0,1,.548.665v.924a.368.368,0,1,0,.735,0V187.2a.613.613,0,0,1,.677-.609.65.65,0,0,1,.548.665v.924a.368.368,0,1,0,.735,0v-.588a.613.613,0,0,1,.677-.609.65.65,0,0,1,.548.665v4.061Z" transform="translate(-239.452 -179.578)" fill="#fff"/>
    </g>
  </g>
</svg>
