<svg xmlns="http://www.w3.org/2000/svg" width="26.797" height="21.808" viewBox="0 0 26.797 21.808">
  <g id="Order_Processed" data-name="Order Processed" transform="translate(0.5 0.5)">
    <path id="Path_3294" data-name="Path 3294" d="M-649.69,18.452a10.214,10.214,0,0,1,.488,3.13A10.217,10.217,0,0,1-659.419,31.8a10.217,10.217,0,0,1-10.217-10.217,10.217,10.217,0,0,1,10.217-10.217,10.211,10.211,0,0,1,8.712,4.876" transform="translate(669.636 -10.992)" fill="none" stroke="#fff" stroke-miterlimit="10" stroke-width="1"/>
    <g id="Group_2288" data-name="Group 2288" transform="translate(2.816 0)">
      <g id="Group_2287" data-name="Group 2287" transform="translate(0)">
        <path id="Path_3295" data-name="Path 3295" d="M-643.992,14.956a1.144,1.144,0,0,0-1.618,0l-13.707,13.707-5.269-5.269a1.144,1.144,0,0,0-1.618,0,1.144,1.144,0,0,0,0,1.618l6.078,6.078a1.144,1.144,0,0,0,1.618,0l14.516-14.516A1.145,1.145,0,0,0-643.992,14.956Z" transform="translate(666.538 -14.62)" fill="none" stroke="#fff" stroke-miterlimit="10" stroke-width="1"/>
      </g>
    </g>
  </g>
</svg>
