<svg id="Order_Confirmed" data-name="Order Confirmed" xmlns="http://www.w3.org/2000/svg" width="22.319" height="23.23" viewBox="0 0 22.319 23.23">
  <path id="Path_3288" data-name="Path 3288" d="M130,420h2.733v1.366H130Z" transform="translate(-124.534 -400.869)" fill="#fff"/>
  <path id="Path_3289" data-name="Path 3289" d="M83.384,183.687l-.966-.966-4.831,4.831-1.933-1.933-.966.966,2.9,2.9Z" transform="translate(-71.741 -174.398)" fill="#fff"/>
  <path id="Path_3290" data-name="Path 3290" d="M32.319,5.466H23.665V2.424A2.426,2.426,0,0,0,21.241,0H12.424A2.426,2.426,0,0,0,10,2.424V20.807a2.426,2.426,0,0,0,2.424,2.424h8.818a2.426,2.426,0,0,0,2.424-2.424V17.764h8.654Zm-13-4.1L18.5,2.733H15.17l-.82-1.366ZM11.367,2.424a1.058,1.058,0,0,1,1.057-1.057h.332L14.4,4.1h4.873l1.64-2.733h.332A1.058,1.058,0,0,1,22.3,2.424V5.466H11.367ZM22.3,20.807a1.058,1.058,0,0,1-1.057,1.057H12.424a1.058,1.058,0,0,1-1.057-1.057V17.764H22.3ZM30.953,16.4H11.367V6.832H30.953Z" transform="translate(-10)" fill="#fff"/>
  <path id="Path_3291" data-name="Path 3291" d="M305,180h2.733v1.367H305Z" transform="translate(-291.563 -171.801)" fill="#fff"/>
  <path id="Path_3292" data-name="Path 3292" d="M305,240h4.1v1.366H305Z" transform="translate(-291.563 -229.068)" fill="#fff"/>
  <path id="Path_3293" data-name="Path 3293" d="M305,300h6.149v1.367H305Z" transform="translate(-291.563 -286.335)" fill="#fff"/>
</svg>
