<svg xmlns="http://www.w3.org/2000/svg" width="18.385" height="14.355" viewBox="0 0 18.385 14.355">
  <g id="Group_2609" data-name="Group 2609" transform="translate(-204.016 -347.73)">
    <path id="Path_3674" data-name="Path 3674" d="M222.117,351.374q-1.079,1.111-2.189,2.19a.777.777,0,0,1-1.129,0,.788.788,0,0,1-.051-1.131,8.359,8.359,0,0,0,.72-.75c-1.144,0-2.281-.308-3.345.137a3.285,3.285,0,0,0-1.258,1c-1.31,1.7-2.578,3.427-3.834,5.165a4.592,4.592,0,0,1-4.079,2.07c-.677-.02-1.354,0-2.032-.006a.821.821,0,0,1-.905-.8.83.83,0,0,1,.9-.853c.709-.01,1.419-.015,2.129,0a2.867,2.867,0,0,0,2.516-1.271c1.287-1.756,2.6-3.495,3.889-5.245a4.472,4.472,0,0,1,3.849-1.944c.7.01,1.407,0,2.11,0l.086-.173a8.356,8.356,0,0,1-.692-.6.829.829,0,1,1,1.17-1.173q1.1,1.092,2.158,2.221A.749.749,0,0,1,222.117,351.374Z" transform="translate(0 0)" fill="#182848"/>
    <path id="Path_3675" data-name="Path 3675" d="M306.114,436.682q-1.016,1.037-2.051,2.053a.807.807,0,0,1-1.2.065.834.834,0,0,1,.043-1.242c.2-.206.436-.378.655-.565l-.084-.164H301.7a4.65,4.65,0,0,1-4.594-2.526l1.032-1.374c.269.357.515.672.747,1a2.793,2.793,0,0,0,2.479,1.241c.708-.017,1.416,0,2.263,0-.287-.289-.5-.494-.7-.707a.835.835,0,1,1,1.182-1.167q1.006,1.012,1.994,2.043A.85.85,0,0,1,306.114,436.682Z" transform="translate(-84.082 -76.951)" fill="#182848"/>
    <path id="Path_3676" data-name="Path 3676" d="M211.465,371.28l-1.018,1.357c-.292-.395-.568-.749-.825-1.118a2.843,2.843,0,0,0-2.55-1.3c-.71.015-1.419.009-2.129,0a.837.837,0,0,1-.924-.836c0-.495.356-.81.933-.818s1.131.031,1.693-.008A4.791,4.791,0,0,1,211.465,371.28Z" transform="translate(-0.004 -18.799)" fill="#182848"/>
  </g>
</svg>
