<svg xmlns="http://www.w3.org/2000/svg" width="27.056" height="25.214" viewBox="0 0 27.056 25.214">
  <g id="Ready_to_Ship" data-name="Ready to Ship" transform="translate(-9 -25.634)">
    <path id="Path_3302" data-name="Path 3302" d="M34.408,36.5H33.044a1.344,1.344,0,0,0-1.283-.986H30.305V31.951a.376.376,0,0,0-.183-.332L19.849,25.685a.379.379,0,0,0-.381,0L9.191,31.619A.382.382,0,0,0,9,31.951V43.819a.383.383,0,0,0,.192.332l10.278,5.934a.383.383,0,0,0,.192.051.4.4,0,0,0,.2-.051l5.408-3.119V49.22A1.623,1.623,0,0,0,26.9,50.848h7.5a1.633,1.633,0,0,0,1.648-1.628V38.151A1.654,1.654,0,0,0,34.408,36.5Zm-2.633-.219a.557.557,0,0,1,.557.557v.037a.557.557,0,0,1-.557.557H29.547a.557.557,0,0,1-.557-.557v-.037a.557.557,0,0,1,.557-.557ZM19.661,26.46l4.271,2.466-9.51,5.491-4.271-2.466ZM19.3,49.089,9.767,43.6V32.614l9.53,5.491Zm.364-11.647-4.473-2.582,9.51-5.491,4.473,2.582Zm5.605.71V46.08l-5.2,3.009V38.105l9.475-5.491v2.9h.012a1.344,1.344,0,0,0-1.283.986H26.9A1.645,1.645,0,0,0,25.266,38.151ZM35.289,49.22a.865.865,0,0,1-.881.861H26.9a.856.856,0,0,1-.87-.861V38.151a.878.878,0,0,1,.87-.886h1.379a1.311,1.311,0,0,0,1.268.931h2.211a1.311,1.311,0,0,0,1.268-.931h1.379a.887.887,0,0,1,.881.886Z" transform="translate(0 0)" fill="#fff"/>
    <path id="Path_3303" data-name="Path 3303" d="M337.38,280.574h.4a.383.383,0,1,0,0-.767h-.015v-1.041h1.057a.369.369,0,0,0,.364.259.384.384,0,0,0,.385-.383v-.258a.388.388,0,0,0-.388-.385H337.38a.383.383,0,0,0-.381.385v1.806a.381.381,0,0,0,.381.383Z" transform="translate(-310.036 -238.544)" fill="#fff"/>
    <path id="Path_3304" data-name="Path 3304" d="M337.383,344.574h1.807a.383.383,0,0,0,.383-.383v-1.807a.383.383,0,0,0-.383-.383h-1.807a.383.383,0,0,0-.383.383v1.807A.383.383,0,0,0,337.383,344.574Zm.383-1.807h1.041v1.041h-1.041Z" transform="translate(-310.036 -299.039)" fill="#fff"/>
    <path id="Path_3305" data-name="Path 3305" d="M337.781,407.807h-.015v-1.041H338.8a.385.385,0,1,0,.771,0V406.4a.4.4,0,0,0-.388-.4H337.38a.394.394,0,0,0-.381.4V408.2a.37.37,0,0,0,.381.37h.4a.383.383,0,0,0,0-.767Z" transform="translate(-310.035 -359.534)" fill="#fff"/>
    <path id="Path_3306" data-name="Path 3306" d="M356.473,284.651l-1.123,1.123-.342-.342a.383.383,0,0,0-.542.542l.613.613a.383.383,0,0,0,.542,0l1.394-1.394a.383.383,0,0,0-.542-.542Z" transform="translate(-326.44 -244.725)" fill="#fff"/>
    <path id="Path_3307" data-name="Path 3307" d="M356.473,413.9l-1.123,1.123-.342-.342a.383.383,0,1,0-.542.542l.613.613a.383.383,0,0,0,.542,0l1.394-1.394a.383.383,0,0,0-.542-.542Z" transform="translate(-326.44 -366.895)" fill="#fff"/>
    <path id="Path_3308" data-name="Path 3308" d="M416.682,295h-2.408a.383.383,0,1,0,0,.767h2.408a.383.383,0,1,0,0-.767Z" transform="translate(-382.715 -254.613)" fill="#fff"/>
    <path id="Path_3309" data-name="Path 3309" d="M416.682,359h-2.408a.383.383,0,1,0,0,.767h2.408a.383.383,0,1,0,0-.767Z" transform="translate(-382.715 -315.108)" fill="#fff"/>
    <path id="Path_3310" data-name="Path 3310" d="M416.682,423h-2.408a.383.383,0,0,0,0,.767h2.408a.383.383,0,0,0,0-.767Z" transform="translate(-382.715 -375.603)" fill="#fff"/>
  </g>
</svg>
